<?xml version="1.0" encoding="utf-8" standalone="no"?>
<!DOCTYPE svg PUBLIC "-//W3C//DTD SVG 1.1//EN"
  "http://www.w3.org/Graphics/SVG/1.1/DTD/svg11.dtd">
<svg xmlns:xlink="http://www.w3.org/1999/xlink" width="371.52pt" height="252.48pt" viewBox="0 0 371.52 252.48" xmlns="http://www.w3.org/2000/svg" version="1.1">
 <metadata>
  <rdf:RDF xmlns:dc="http://purl.org/dc/elements/1.1/" xmlns:cc="http://creativecommons.org/ns#" xmlns:rdf="http://www.w3.org/1999/02/22-rdf-syntax-ns#">
   <cc:Work>
    <dc:type rdf:resource="http://purl.org/dc/dcmitype/StillImage"/>
    <dc:date>2023-02-26T20:21:16.364550</dc:date>
    <dc:format>image/svg+xml</dc:format>
    <dc:creator>
     <cc:Agent>
      <dc:title>Matplotlib v3.5.2, https://matplotlib.org/</dc:title>
     </cc:Agent>
    </dc:creator>
   </cc:Work>
  </rdf:RDF>
 </metadata>
 <defs>
  <style type="text/css">*{stroke-linejoin: round; stroke-linecap: butt}</style>
 </defs>
 <g id="figure_1">
  <g id="patch_1">
   <path d="M 0 252.48 
L 371.52 252.48 
L 371.52 0 
L 0 0 
z
" style="fill: #ffffff"/>
  </g>
  <g id="axes_1">
   <g id="PathCollection_1"/>
   <g id="PathCollection_2"/>
   <g id="PathCollection_3"/>
   <g id="PathCollection_4"/>
   <g id="PathCollection_5"/>
   <g id="PathCollection_6"/>
   <g id="PathCollection_7"/>
   <g id="PathCollection_8"/>
   <g id="PathCollection_9"/>
   <g id="PathCollection_10"/>
   <g id="PathCollection_11"/>
   <g id="PathCollection_12"/>
   <g id="PathCollection_13"/>
   <g id="PathCollection_14"/>
   <g id="PathCollection_15"/>
   <g id="PathCollection_16"/>
   <g id="PathCollection_17"/>
   <g id="PathCollection_18"/>
   <g id="PathCollection_19"/>
   <g id="PathCollection_20"/>
   <g id="PathCollection_21"/>
   <g id="PathCollection_22"/>
   <g id="PathCollection_23"/>
   <g id="PathCollection_24"/>
   <g id="PathCollection_25"/>
   <g id="PathCollection_26"/>
   <g id="patch_2">
    <path d="M 321.032727 126.24 
L 348.087273 126.24 
L 348.087273 72.130909 
L 266.923636 72.130909 
L 266.923636 126.24 
L 104.596364 126.24 
L 104.596364 45.076364 
L 185.76 45.076364 
L 185.76 18.021818 
L 77.541818 18.021818 
L 77.541818 126.24 
L 23.432727 126.24 
L 23.432727 234.458182 
L 50.487273 234.458182 
L 50.487273 180.349091 
L 185.76 180.349091 
L 185.76 234.458182 
L 266.923636 234.458182 
L 266.923636 193.876364 
L 239.869091 193.876364 
L 239.869091 207.403636 
L 212.814545 207.403636 
L 212.814545 180.349091 
L 293.978182 180.349091 
L 293.978182 99.185455 
L 321.032727 99.185455 
z
" clip-path="url(#pc46eb2e7ab)" style="fill: #d3d3d3; stroke: #000000; stroke-width: 2; stroke-linejoin: miter"/>
   </g>
   <g id="PathCollection_27"/>
   <g id="PathCollection_28"/>
   <g id="PathCollection_29"/>
   <g id="PathCollection_30"/>
   <g id="PathCollection_31"/>
   <g id="PathCollection_32"/>
   <g id="PathCollection_33"/>
   <g id="PathCollection_34"/>
   <g id="PathCollection_35"/>
   <g id="PathCollection_36"/>
   <g id="PathCollection_37"/>
   <g id="PathCollection_38"/>
   <g id="PathCollection_39"/>
   <g id="patch_3">
    <path d="M 23.432727 234.458182 
L 50.487273 234.458182 
L 50.487273 180.349091 
L 55.17028 180.349091 
L 154.376727 154.998982 
L 118.773292 126.24 
L 104.596364 126.24 
L 104.596364 45.076364 
L 185.76 45.076364 
L 185.76 18.021818 
L 77.541818 18.021818 
L 77.541818 126.24 
L 23.432727 126.24 
z
" clip-path="url(#pc46eb2e7ab)" style="fill: #90ee90; stroke: #000000; stroke-width: 2; stroke-linejoin: miter"/>
   </g>
   <g id="PathCollection_40"/>
   <g id="PathCollection_41"/>
   <g id="PathCollection_42"/>
   <g id="PathCollection_43"/>
   <g id="PathCollection_44"/>
   <g id="PathCollection_45"/>
   <g id="PathCollection_46"/>
   <g id="PathCollection_47"/>
   <g id="patch_4">
    <path d="M 239.869091 193.876364 
L 239.869091 207.403636 
L 212.814545 207.403636 
L 212.814545 202.202633 
L 185.76 180.349091 
L 185.76 234.458182 
L 266.923636 234.458182 
L 266.923636 193.876364 
z
" clip-path="url(#pc46eb2e7ab)" style="fill: #ffc0cb; stroke: #000000; stroke-width: 2; stroke-linejoin: miter"/>
   </g>
   <g id="PathCollection_48"/>
   <g id="PathCollection_49"/>
   <g id="PathCollection_50"/>
   <g id="PathCollection_51"/>
   <g id="PathCollection_52"/>
   <g id="PathCollection_53"/>
   <g id="PathCollection_54"/>
   <g id="PathCollection_55"/>
   <g id="patch_5">
    <path d="M 321.032727 126.24 
L 348.087273 126.24 
L 348.087273 72.130909 
L 266.923636 72.130909 
L 266.923636 126.24 
L 293.978182 119.326783 
L 293.978182 99.185455 
L 321.032727 99.185455 
z
" clip-path="url(#pc46eb2e7ab)" style="fill: #ffc0cb; stroke: #000000; stroke-width: 2; stroke-linejoin: miter"/>
   </g>
   <g id="PathCollection_56">
    <defs>
     <path id="m4fe135ac77" d="M 0 3 
C 0.795609 3 1.55874 2.683901 2.12132 2.12132 
C 2.683901 1.55874 3 0.795609 3 0 
C 3 -0.795609 2.683901 -1.55874 2.12132 -2.12132 
C 1.55874 -2.683901 0.795609 -3 0 -3 
C -0.795609 -3 -1.55874 -2.683901 -2.12132 -2.12132 
C -2.683901 -1.55874 -3 -0.795609 -3 0 
C -3 0.795609 -2.683901 1.55874 -2.12132 2.12132 
C -1.55874 2.683901 -0.795609 3 0 3 
z
" style="stroke: #0000ff"/>
    </defs>
    <g clip-path="url(#pc46eb2e7ab)">
     <use xlink:href="#m4fe135ac77" x="154.376727" y="154.998982" style="fill: #0000ff; stroke: #0000ff"/>
    </g>
   </g>
   <g id="PathCollection_57">
    <defs>
     <path id="m5a0549e6ef" d="M 0 3 
C 0.795609 3 1.55874 2.683901 2.12132 2.12132 
C 2.683901 1.55874 3 0.795609 3 0 
C 3 -0.795609 2.683901 -1.55874 2.12132 -2.12132 
C 1.55874 -2.683901 0.795609 -3 0 -3 
C -0.795609 -3 -1.55874 -2.683901 -2.12132 -2.12132 
C -2.683901 -1.55874 -3 -0.795609 -3 0 
C -3 0.795609 -2.683901 1.55874 -2.12132 2.12132 
C -1.55874 2.683901 -0.795609 3 0 3 
z
" style="stroke: #008000"/>
    </defs>
    <g clip-path="url(#pc46eb2e7ab)">
     <use xlink:href="#m5a0549e6ef" x="145.178182" y="31.549091" style="fill: #008000; stroke: #008000"/>
    </g>
   </g>
   <g id="PathCollection_58"/>
   <g id="PathCollection_59"/>
   <g id="PathCollection_60"/>
   <g id="PathCollection_61"/>
   <g id="PathCollection_62"/>
   <g id="PathCollection_63"/>
   <g id="PathCollection_64"/>
   <g id="PathCollection_65"/>
   <g id="PathCollection_66"/>
   <g id="PathCollection_67"/>
   <g id="PathCollection_68"/>
   <g id="PathCollection_69"/>
   <g id="PathCollection_70"/>
   <g id="PathCollection_71"/>
   <g id="PathCollection_72"/>
   <g id="PathCollection_73"/>
   <g id="PathCollection_74"/>
   <g id="PathCollection_75"/>
   <g id="PathCollection_76"/>
   <g id="PathCollection_77"/>
   <g id="PathCollection_78"/>
   <g id="PathCollection_79"/>
   <g id="PathCollection_80"/>
   <g id="PathCollection_81"/>
   <g id="PathCollection_82"/>
   <g id="PathCollection_83"/>
   <g id="patch_6">
    <path d="M 321.032727 126.24 
L 348.087273 126.24 
L 348.087273 72.130909 
L 266.923636 72.130909 
L 266.923636 126.24 
L 104.596364 126.24 
L 104.596364 45.076364 
L 185.76 45.076364 
L 185.76 18.021818 
L 77.541818 18.021818 
L 77.541818 126.24 
L 23.432727 126.24 
L 23.432727 234.458182 
L 50.487273 234.458182 
L 50.487273 180.349091 
L 185.76 180.349091 
L 185.76 234.458182 
L 266.923636 234.458182 
L 266.923636 193.876364 
L 239.869091 193.876364 
L 239.869091 207.403636 
L 212.814545 207.403636 
L 212.814545 180.349091 
L 293.978182 180.349091 
L 293.978182 99.185455 
L 321.032727 99.185455 
z
" clip-path="url(#pc46eb2e7ab)" style="fill: #d3d3d3; stroke: #000000; stroke-width: 2; stroke-linejoin: miter"/>
   </g>
   <g id="PathCollection_84"/>
   <g id="PathCollection_85"/>
   <g id="PathCollection_86"/>
   <g id="PathCollection_87"/>
   <g id="PathCollection_88"/>
   <g id="PathCollection_89"/>
   <g id="PathCollection_90"/>
   <g id="PathCollection_91"/>
   <g id="PathCollection_92"/>
   <g id="PathCollection_93"/>
   <g id="PathCollection_94"/>
   <g id="PathCollection_95"/>
   <g id="PathCollection_96"/>
   <g id="patch_7">
    <path d="M 23.432727 234.458182 
L 50.487273 234.458182 
L 50.487273 180.349091 
L 55.17028 180.349091 
L 154.376727 154.998982 
L 118.773292 126.24 
L 104.596364 126.24 
L 104.596364 45.076364 
L 185.76 45.076364 
L 185.76 18.021818 
L 77.541818 18.021818 
L 77.541818 126.24 
L 23.432727 126.24 
z
" clip-path="url(#pc46eb2e7ab)" style="fill: #90ee90; stroke: #000000; stroke-width: 2; stroke-linejoin: miter"/>
   </g>
   <g id="PathCollection_97"/>
   <g id="PathCollection_98"/>
   <g id="PathCollection_99"/>
   <g id="PathCollection_100"/>
   <g id="PathCollection_101"/>
   <g id="PathCollection_102"/>
   <g id="PathCollection_103"/>
   <g id="PathCollection_104"/>
   <g id="patch_8">
    <path d="M 239.869091 193.876364 
L 239.869091 207.403636 
L 212.814545 207.403636 
L 212.814545 202.202633 
L 185.76 180.349091 
L 185.76 234.458182 
L 266.923636 234.458182 
L 266.923636 193.876364 
z
" clip-path="url(#pc46eb2e7ab)" style="fill: #ffc0cb; stroke: #000000; stroke-width: 2; stroke-linejoin: miter"/>
   </g>
   <g id="PathCollection_105"/>
   <g id="PathCollection_106"/>
   <g id="PathCollection_107"/>
   <g id="PathCollection_108"/>
   <g id="PathCollection_109"/>
   <g id="PathCollection_110"/>
   <g id="PathCollection_111"/>
   <g id="PathCollection_112"/>
   <g id="patch_9">
    <path d="M 321.032727 126.24 
L 348.087273 126.24 
L 348.087273 72.130909 
L 266.923636 72.130909 
L 266.923636 126.24 
L 293.978182 119.326783 
L 293.978182 99.185455 
L 321.032727 99.185455 
z
" clip-path="url(#pc46eb2e7ab)" style="fill: #ffc0cb; stroke: #000000; stroke-width: 2; stroke-linejoin: miter"/>
   </g>
   <g id="PathCollection_113">
    <g clip-path="url(#pc46eb2e7ab)">
     <use xlink:href="#m4fe135ac77" x="154.376727" y="154.998982" style="fill: #0000ff; stroke: #0000ff"/>
    </g>
   </g>
   <g id="PathCollection_114">
    <defs>
     <path id="m13f8060cff" d="M 0 3 
C 0.795609 3 1.55874 2.683901 2.12132 2.12132 
C 2.683901 1.55874 3 0.795609 3 0 
C 3 -0.795609 2.683901 -1.55874 2.12132 -2.12132 
C 1.55874 -2.683901 0.795609 -3 0 -3 
C -0.795609 -3 -1.55874 -2.683901 -2.12132 -2.12132 
C -2.683901 -1.55874 -3 -0.795609 -3 0 
C -3 0.795609 -2.683901 1.55874 -2.12132 2.12132 
C -1.55874 2.683901 -0.795609 3 0 3 
z
" style="stroke: #000000"/>
    </defs>
    <g clip-path="url(#pc46eb2e7ab)">
     <use xlink:href="#m13f8060cff" x="41.478109" y="216.4128" style="stroke: #000000"/>
    </g>
   </g>
   <g id="PathCollection_115">
    <g clip-path="url(#pc46eb2e7ab)">
     <use xlink:href="#m13f8060cff" x="32.441891" y="200.64" style="stroke: #000000"/>
    </g>
   </g>
   <g id="PathCollection_116">
    <g clip-path="url(#pc46eb2e7ab)">
     <use xlink:href="#m13f8060cff" x="32.441891" y="200.64" style="stroke: #000000"/>
    </g>
   </g>
   <g id="PathCollection_117">
    <g clip-path="url(#pc46eb2e7ab)">
     <use xlink:href="#m13f8060cff" x="34.443927" y="182.594618" style="stroke: #000000"/>
    </g>
   </g>
   <g id="PathCollection_118">
    <g clip-path="url(#pc46eb2e7ab)">
     <use xlink:href="#m13f8060cff" x="34.443927" y="182.594618" style="stroke: #000000"/>
    </g>
   </g>
   <g id="PathCollection_119">
    <g clip-path="url(#pc46eb2e7ab)">
     <use xlink:href="#m13f8060cff" x="43.480145" y="172.449164" style="stroke: #000000"/>
    </g>
   </g>
   <g id="PathCollection_120">
    <g clip-path="url(#pc46eb2e7ab)">
     <use xlink:href="#m13f8060cff" x="43.480145" y="172.449164" style="stroke: #000000"/>
    </g>
   </g>
   <g id="PathCollection_121">
    <g clip-path="url(#pc46eb2e7ab)">
     <use xlink:href="#m13f8060cff" x="59.496436" y="154.430836" style="stroke: #000000"/>
    </g>
   </g>
   <g id="PathCollection_122">
    <g clip-path="url(#pc46eb2e7ab)">
     <use xlink:href="#m13f8060cff" x="59.496436" y="154.430836" style="stroke: #000000"/>
    </g>
   </g>
   <g id="PathCollection_123">
    <g clip-path="url(#pc46eb2e7ab)">
     <use xlink:href="#m13f8060cff" x="63.365236" y="159.733527" style="stroke: #000000"/>
    </g>
   </g>
   <g id="PathCollection_124">
    <g clip-path="url(#pc46eb2e7ab)">
     <use xlink:href="#m13f8060cff" x="63.365236" y="159.733527" style="stroke: #000000"/>
    </g>
   </g>
   <g id="PathCollection_125">
    <g clip-path="url(#pc46eb2e7ab)">
     <use xlink:href="#m13f8060cff" x="72.401455" y="153.727418" style="stroke: #000000"/>
    </g>
   </g>
   <g id="PathCollection_126">
    <g clip-path="url(#pc46eb2e7ab)">
     <use xlink:href="#m13f8060cff" x="72.401455" y="153.727418" style="stroke: #000000"/>
    </g>
   </g>
   <g id="PathCollection_127">
    <g clip-path="url(#pc46eb2e7ab)">
     <use xlink:href="#m13f8060cff" x="91.069091" y="139.767273" style="stroke: #000000"/>
    </g>
   </g>
   <g id="PathCollection_128">
    <g clip-path="url(#pc46eb2e7ab)">
     <use xlink:href="#m13f8060cff" x="91.069091" y="139.767273" style="stroke: #000000"/>
    </g>
   </g>
   <g id="PathCollection_129">
    <g clip-path="url(#pc46eb2e7ab)">
     <use xlink:href="#m13f8060cff" x="88.823564" y="121.721891" style="stroke: #000000"/>
    </g>
   </g>
   <g id="PathCollection_130">
    <g clip-path="url(#pc46eb2e7ab)">
     <use xlink:href="#m13f8060cff" x="88.823564" y="121.721891" style="stroke: #000000"/>
    </g>
   </g>
   <g id="PathCollection_131">
    <g clip-path="url(#pc46eb2e7ab)">
     <use xlink:href="#m13f8060cff" x="81.437673" y="116.825018" style="stroke: #000000"/>
    </g>
   </g>
   <g id="PathCollection_132">
    <g clip-path="url(#pc46eb2e7ab)">
     <use xlink:href="#m13f8060cff" x="81.437673" y="116.825018" style="stroke: #000000"/>
    </g>
   </g>
   <g id="PathCollection_133">
    <g clip-path="url(#pc46eb2e7ab)">
     <use xlink:href="#m13f8060cff" x="93.990982" y="85.360582" style="stroke: #000000"/>
    </g>
   </g>
   <g id="PathCollection_134">
    <g clip-path="url(#pc46eb2e7ab)">
     <use xlink:href="#m13f8060cff" x="93.990982" y="85.360582" style="stroke: #000000"/>
    </g>
   </g>
   <g id="PathCollection_135">
    <g clip-path="url(#pc46eb2e7ab)">
     <use xlink:href="#m13f8060cff" x="88.201309" y="88.255418" style="stroke: #000000"/>
    </g>
   </g>
   <g id="PathCollection_136">
    <g clip-path="url(#pc46eb2e7ab)">
     <use xlink:href="#m13f8060cff" x="88.201309" y="88.255418" style="stroke: #000000"/>
    </g>
   </g>
   <g id="PathCollection_137">
    <g clip-path="url(#pc46eb2e7ab)">
     <use xlink:href="#m13f8060cff" x="86.550982" y="66.1248" style="stroke: #000000"/>
    </g>
   </g>
   <g id="PathCollection_138">
    <g clip-path="url(#pc46eb2e7ab)">
     <use xlink:href="#m13f8060cff" x="86.550982" y="66.1248" style="stroke: #000000"/>
    </g>
   </g>
   <g id="PathCollection_139">
    <g clip-path="url(#pc46eb2e7ab)">
     <use xlink:href="#m13f8060cff" x="91.069091" y="31.549091" style="stroke: #000000"/>
    </g>
   </g>
   <g id="PathCollection_140">
    <g clip-path="url(#pc46eb2e7ab)">
     <use xlink:href="#m13f8060cff" x="91.069091" y="31.549091" style="stroke: #000000"/>
    </g>
   </g>
   <g id="PathCollection_141">
    <g clip-path="url(#pc46eb2e7ab)">
     <use xlink:href="#m13f8060cff" x="86.550982" y="66.1248" style="stroke: #000000"/>
    </g>
   </g>
   <g id="PathCollection_142">
    <g clip-path="url(#pc46eb2e7ab)">
     <use xlink:href="#m13f8060cff" x="86.550982" y="66.1248" style="stroke: #000000"/>
    </g>
   </g>
   <g id="PathCollection_143">
    <g clip-path="url(#pc46eb2e7ab)">
     <use xlink:href="#m13f8060cff" x="88.201309" y="88.255418" style="stroke: #000000"/>
    </g>
   </g>
   <g id="PathCollection_144">
    <g clip-path="url(#pc46eb2e7ab)">
     <use xlink:href="#m13f8060cff" x="88.201309" y="88.255418" style="stroke: #000000"/>
    </g>
   </g>
   <g id="PathCollection_145">
    <g clip-path="url(#pc46eb2e7ab)">
     <use xlink:href="#m13f8060cff" x="93.990982" y="85.360582" style="stroke: #000000"/>
    </g>
   </g>
   <g id="PathCollection_146">
    <g clip-path="url(#pc46eb2e7ab)">
     <use xlink:href="#m13f8060cff" x="93.990982" y="85.360582" style="stroke: #000000"/>
    </g>
   </g>
   <g id="PathCollection_147">
    <g clip-path="url(#pc46eb2e7ab)">
     <use xlink:href="#m13f8060cff" x="81.437673" y="116.825018" style="stroke: #000000"/>
    </g>
   </g>
   <g id="PathCollection_148">
    <g clip-path="url(#pc46eb2e7ab)">
     <use xlink:href="#m13f8060cff" x="81.437673" y="116.825018" style="stroke: #000000"/>
    </g>
   </g>
   <g id="PathCollection_149">
    <g clip-path="url(#pc46eb2e7ab)">
     <use xlink:href="#m13f8060cff" x="88.823564" y="121.721891" style="stroke: #000000"/>
    </g>
   </g>
   <g id="PathCollection_150">
    <g clip-path="url(#pc46eb2e7ab)">
     <use xlink:href="#m13f8060cff" x="88.823564" y="121.721891" style="stroke: #000000"/>
    </g>
   </g>
   <g id="PathCollection_151">
    <g clip-path="url(#pc46eb2e7ab)">
     <use xlink:href="#m13f8060cff" x="91.069091" y="139.767273" style="stroke: #000000"/>
    </g>
   </g>
   <g id="PathCollection_152">
    <g clip-path="url(#pc46eb2e7ab)">
     <use xlink:href="#m13f8060cff" x="91.069091" y="139.767273" style="stroke: #000000"/>
    </g>
   </g>
   <g id="PathCollection_153">
    <g clip-path="url(#pc46eb2e7ab)">
     <use xlink:href="#m13f8060cff" x="91.069091" y="161.735564" style="stroke: #000000"/>
    </g>
   </g>
   <g id="PathCollection_154">
    <g clip-path="url(#pc46eb2e7ab)">
     <use xlink:href="#m13f8060cff" x="91.069091" y="161.735564" style="stroke: #000000"/>
    </g>
   </g>
   <g id="PathCollection_155">
    <g clip-path="url(#pc46eb2e7ab)">
     <use xlink:href="#m13f8060cff" x="119.043491" y="150.534982" style="stroke: #000000"/>
    </g>
   </g>
   <g id="PathCollection_156">
    <g clip-path="url(#pc46eb2e7ab)">
     <use xlink:href="#m13f8060cff" x="119.043491" y="150.534982" style="stroke: #000000"/>
    </g>
   </g>
   <g id="PathCollection_157">
    <g clip-path="url(#pc46eb2e7ab)">
     <use xlink:href="#m13f8060cff" x="139.3344" y="142.635055" style="stroke: #000000"/>
    </g>
   </g>
   <g id="PathCollection_158">
    <g clip-path="url(#pc46eb2e7ab)">
     <use xlink:href="#m13f8060cff" x="139.3344" y="142.635055" style="stroke: #000000"/>
    </g>
   </g>
   <g id="PathCollection_159">
    <g clip-path="url(#pc46eb2e7ab)">
     <use xlink:href="#m13f8060cff" x="154.376727" y="154.998982" style="stroke: #000000"/>
    </g>
   </g>
   <g id="PathCollection_160">
    <g clip-path="url(#pc46eb2e7ab)">
     <use xlink:href="#m4fe135ac77" x="41.478109" y="216.4128" style="fill: #0000ff; stroke: #0000ff"/>
    </g>
   </g>
   <g id="PathCollection_161">
    <defs>
     <path id="ma130234928" d="M 0 3 
C 0.795609 3 1.55874 2.683901 2.12132 2.12132 
C 2.683901 1.55874 3 0.795609 3 0 
C 3 -0.795609 2.683901 -1.55874 2.12132 -2.12132 
C 1.55874 -2.683901 0.795609 -3 0 -3 
C -0.795609 -3 -1.55874 -2.683901 -2.12132 -2.12132 
C -2.683901 -1.55874 -3 -0.795609 -3 0 
C -3 0.795609 -2.683901 1.55874 -2.12132 2.12132 
C -1.55874 2.683901 -0.795609 3 0 3 
z
" style="stroke: #ff0000"/>
    </defs>
    <g clip-path="url(#pc46eb2e7ab)">
     <use xlink:href="#ma130234928" x="154.376727" y="154.998982" style="fill: #ff0000; stroke: #ff0000"/>
    </g>
   </g>
   <g id="PathCollection_162">
    <g clip-path="url(#pc46eb2e7ab)">
     <use xlink:href="#m5a0549e6ef" x="145.178182" y="31.549091" style="fill: #008000; stroke: #008000"/>
    </g>
   </g>
   <g id="line2d_1">
    <path d="M 41.478109 216.4128 
L 32.441891 200.64 
" clip-path="url(#pc46eb2e7ab)" style="fill: none; stroke: #000000; stroke-width: 1.5; stroke-linecap: square"/>
   </g>
   <g id="line2d_2">
    <path d="M 32.441891 200.64 
L 34.443927 182.594618 
" clip-path="url(#pc46eb2e7ab)" style="fill: none; stroke: #000000; stroke-width: 1.5; stroke-linecap: square"/>
   </g>
   <g id="line2d_3">
    <path d="M 34.443927 182.594618 
L 43.480145 172.449164 
" clip-path="url(#pc46eb2e7ab)" style="fill: none; stroke: #000000; stroke-width: 1.5; stroke-linecap: square"/>
   </g>
   <g id="line2d_4">
    <path d="M 43.480145 172.449164 
L 59.496436 154.430836 
" clip-path="url(#pc46eb2e7ab)" style="fill: none; stroke: #000000; stroke-width: 1.5; stroke-linecap: square"/>
   </g>
   <g id="line2d_5">
    <path d="M 59.496436 154.430836 
L 63.365236 159.733527 
" clip-path="url(#pc46eb2e7ab)" style="fill: none; stroke: #000000; stroke-width: 1.5; stroke-linecap: square"/>
   </g>
   <g id="line2d_6">
    <path d="M 63.365236 159.733527 
L 72.401455 153.727418 
" clip-path="url(#pc46eb2e7ab)" style="fill: none; stroke: #000000; stroke-width: 1.5; stroke-linecap: square"/>
   </g>
   <g id="line2d_7">
    <path d="M 72.401455 153.727418 
L 91.069091 139.767273 
" clip-path="url(#pc46eb2e7ab)" style="fill: none; stroke: #000000; stroke-width: 1.5; stroke-linecap: square"/>
   </g>
   <g id="line2d_8">
    <path d="M 91.069091 139.767273 
L 88.823564 121.721891 
" clip-path="url(#pc46eb2e7ab)" style="fill: none; stroke: #000000; stroke-width: 1.5; stroke-linecap: square"/>
   </g>
   <g id="line2d_9">
    <path d="M 88.823564 121.721891 
L 81.437673 116.825018 
" clip-path="url(#pc46eb2e7ab)" style="fill: none; stroke: #000000; stroke-width: 1.5; stroke-linecap: square"/>
   </g>
   <g id="line2d_10">
    <path d="M 81.437673 116.825018 
L 93.990982 85.360582 
" clip-path="url(#pc46eb2e7ab)" style="fill: none; stroke: #000000; stroke-width: 1.5; stroke-linecap: square"/>
   </g>
   <g id="line2d_11">
    <path d="M 93.990982 85.360582 
L 88.201309 88.255418 
" clip-path="url(#pc46eb2e7ab)" style="fill: none; stroke: #000000; stroke-width: 1.5; stroke-linecap: square"/>
   </g>
   <g id="line2d_12">
    <path d="M 88.201309 88.255418 
L 86.550982 66.1248 
" clip-path="url(#pc46eb2e7ab)" style="fill: none; stroke: #000000; stroke-width: 1.5; stroke-linecap: square"/>
   </g>
   <g id="line2d_13">
    <path d="M 86.550982 66.1248 
L 91.069091 31.549091 
" clip-path="url(#pc46eb2e7ab)" style="fill: none; stroke: #000000; stroke-width: 1.5; stroke-linecap: square"/>
   </g>
   <g id="line2d_14">
    <path d="M 91.069091 31.549091 
L 86.550982 66.1248 
" clip-path="url(#pc46eb2e7ab)" style="fill: none; stroke: #000000; stroke-width: 1.5; stroke-linecap: square"/>
   </g>
   <g id="line2d_15">
    <path d="M 86.550982 66.1248 
L 88.201309 88.255418 
" clip-path="url(#pc46eb2e7ab)" style="fill: none; stroke: #000000; stroke-width: 1.5; stroke-linecap: square"/>
   </g>
   <g id="line2d_16">
    <path d="M 88.201309 88.255418 
L 93.990982 85.360582 
" clip-path="url(#pc46eb2e7ab)" style="fill: none; stroke: #000000; stroke-width: 1.5; stroke-linecap: square"/>
   </g>
   <g id="line2d_17">
    <path d="M 93.990982 85.360582 
L 81.437673 116.825018 
" clip-path="url(#pc46eb2e7ab)" style="fill: none; stroke: #000000; stroke-width: 1.5; stroke-linecap: square"/>
   </g>
   <g id="line2d_18">
    <path d="M 81.437673 116.825018 
L 88.823564 121.721891 
" clip-path="url(#pc46eb2e7ab)" style="fill: none; stroke: #000000; stroke-width: 1.5; stroke-linecap: square"/>
   </g>
   <g id="line2d_19">
    <path d="M 88.823564 121.721891 
L 91.069091 139.767273 
" clip-path="url(#pc46eb2e7ab)" style="fill: none; stroke: #000000; stroke-width: 1.5; stroke-linecap: square"/>
   </g>
   <g id="line2d_20">
    <path d="M 91.069091 139.767273 
L 91.069091 161.735564 
" clip-path="url(#pc46eb2e7ab)" style="fill: none; stroke: #000000; stroke-width: 1.5; stroke-linecap: square"/>
   </g>
   <g id="line2d_21">
    <path d="M 91.069091 161.735564 
L 119.043491 150.534982 
" clip-path="url(#pc46eb2e7ab)" style="fill: none; stroke: #000000; stroke-width: 1.5; stroke-linecap: square"/>
   </g>
   <g id="line2d_22">
    <path d="M 119.043491 150.534982 
L 139.3344 142.635055 
" clip-path="url(#pc46eb2e7ab)" style="fill: none; stroke: #000000; stroke-width: 1.5; stroke-linecap: square"/>
   </g>
   <g id="line2d_23">
    <path d="M 139.3344 142.635055 
L 154.376727 154.998982 
" clip-path="url(#pc46eb2e7ab)" style="fill: none; stroke: #000000; stroke-width: 1.5; stroke-linecap: square"/>
   </g>
  </g>
 </g>
 <defs>
  <clipPath id="pc46eb2e7ab">
   <rect x="7.2" y="7.2" width="357.12" height="238.08"/>
  </clipPath>
 </defs>
</svg>
