<?xml version="1.0" encoding="utf-8" standalone="no"?>
<!DOCTYPE svg PUBLIC "-//W3C//DTD SVG 1.1//EN"
  "http://www.w3.org/Graphics/SVG/1.1/DTD/svg11.dtd">
<svg xmlns:xlink="http://www.w3.org/1999/xlink" width="310.08pt" height="280.512pt" viewBox="0 0 310.08 280.512" xmlns="http://www.w3.org/2000/svg" version="1.1">
 <metadata>
  <rdf:RDF xmlns:dc="http://purl.org/dc/elements/1.1/" xmlns:cc="http://creativecommons.org/ns#" xmlns:rdf="http://www.w3.org/1999/02/22-rdf-syntax-ns#">
   <cc:Work>
    <dc:type rdf:resource="http://purl.org/dc/dcmitype/StillImage"/>
    <dc:date>2023-02-26T13:40:00.088004</dc:date>
    <dc:format>image/svg+xml</dc:format>
    <dc:creator>
     <cc:Agent>
      <dc:title>Matplotlib v3.5.2, https://matplotlib.org/</dc:title>
     </cc:Agent>
    </dc:creator>
   </cc:Work>
  </rdf:RDF>
 </metadata>
 <defs>
  <style type="text/css">*{stroke-linejoin: round; stroke-linecap: butt}</style>
 </defs>
 <g id="figure_1">
  <g id="patch_1">
   <path d="M 0 280.512 
L 310.08 280.512 
L 310.08 0 
L 0 0 
z
" style="fill: #ffffff"/>
  </g>
  <g id="axes_1">
   <g id="PathCollection_1"/>
   <g id="PathCollection_2"/>
   <g id="PathCollection_3"/>
   <g id="PathCollection_4"/>
   <g id="PathCollection_5"/>
   <g id="PathCollection_6"/>
   <g id="PathCollection_7"/>
   <g id="PathCollection_8"/>
   <g id="PathCollection_9"/>
   <g id="PathCollection_10"/>
   <g id="PathCollection_11"/>
   <g id="PathCollection_12"/>
   <g id="PathCollection_13"/>
   <g id="PathCollection_14"/>
   <g id="PathCollection_15"/>
   <g id="PathCollection_16"/>
   <g id="PathCollection_17"/>
   <g id="PathCollection_18"/>
   <g id="PathCollection_19"/>
   <g id="PathCollection_20"/>
   <g id="PathCollection_21"/>
   <g id="PathCollection_22"/>
   <g id="PathCollection_23"/>
   <g id="PathCollection_24"/>
   <g id="PathCollection_25"/>
   <g id="PathCollection_26"/>
   <g id="PathCollection_27"/>
   <g id="PathCollection_28"/>
   <g id="PathCollection_29"/>
   <g id="patch_2">
    <path d="M 181.92 73.056 
L 181.92 99.936 
L 155.04 99.936 
L 155.04 73.056 
L 128.16 73.056 
L 128.16 126.816 
L 181.92 126.816 
L 181.92 180.576 
L 101.28 180.576 
L 101.28 73.056 
L 74.4 73.056 
L 74.4 46.176 
L 101.28 46.176 
L 101.28 19.296 
L 20.64 19.296 
L 20.64 46.176 
L 47.52 46.176 
L 47.52 73.056 
L 20.64 126.816 
L 20.64 234.336 
L 74.4 234.336 
L 74.4 261.216 
L 155.04 261.216 
L 208.8 207.456 
L 208.8 153.696 
L 262.56 207.456 
L 262.56 153.696 
L 289.44 180.576 
L 289.44 99.936 
z
" clip-path="url(#p5eff4d2dfa)" style="fill: #d3d3d3; stroke: #000000; stroke-width: 2; stroke-linejoin: miter"/>
   </g>
   <g id="PathCollection_30"/>
   <g id="PathCollection_31"/>
   <g id="PathCollection_32"/>
   <g id="PathCollection_33"/>
   <g id="PathCollection_34"/>
   <g id="PathCollection_35"/>
   <g id="PathCollection_36"/>
   <g id="PathCollection_37"/>
   <g id="PathCollection_38"/>
   <g id="PathCollection_39"/>
   <g id="PathCollection_40"/>
   <g id="PathCollection_41"/>
   <g id="PathCollection_42"/>
   <g id="PathCollection_43"/>
   <g id="PathCollection_44"/>
   <g id="PathCollection_45"/>
   <g id="PathCollection_46"/>
   <g id="PathCollection_47"/>
   <g id="PathCollection_48"/>
   <g id="PathCollection_49"/>
   <g id="PathCollection_50"/>
   <g id="PathCollection_51"/>
   <g id="PathCollection_52"/>
   <g id="patch_3">
    <path d="M 162.72768 110.4192 
L 174.752 126.816 
L 181.92 126.816 
L 181.92 180.576 
L 101.28 180.576 
L 101.28 73.056 
L 74.4 73.056 
L 74.4 46.176 
L 101.28 46.176 
L 101.28 19.296 
L 20.64 19.296 
L 20.64 46.176 
L 47.52 46.176 
L 47.52 73.056 
L 20.64 126.816 
L 20.64 234.336 
L 74.4 234.336 
L 74.4 261.216 
L 155.04 261.216 
L 208.8 207.456 
L 208.8 153.696 
L 262.56 207.456 
L 262.56 153.696 
z
" clip-path="url(#p5eff4d2dfa)" style="fill: #90ee90; stroke: #000000; stroke-width: 2; stroke-linejoin: miter"/>
   </g>
   <g id="PathCollection_53"/>
   <g id="PathCollection_54"/>
   <g id="PathCollection_55"/>
   <g id="patch_4">
    <path d="M 135.328 73.056 
L 155.04 99.936 
L 155.04 73.056 
z
" clip-path="url(#p5eff4d2dfa)" style="fill: #ffc0cb; stroke: #000000; stroke-width: 2; stroke-linejoin: miter"/>
   </g>
   <g id="PathCollection_56"/>
   <g id="PathCollection_57"/>
   <g id="PathCollection_58"/>
   <g id="patch_5">
    <path d="M 262.56 153.696 
L 289.44 180.576 
L 289.44 165.348342 
z
" clip-path="url(#p5eff4d2dfa)" style="fill: #ffc0cb; stroke: #000000; stroke-width: 2; stroke-linejoin: miter"/>
   </g>
   <g id="PathCollection_59">
    <defs>
     <path id="m55a7fe14c7" d="M 0 3 
C 0.795609 3 1.55874 2.683901 2.12132 2.12132 
C 2.683901 1.55874 3 0.795609 3 0 
C 3 -0.795609 2.683901 -1.55874 2.12132 -2.12132 
C 1.55874 -2.683901 0.795609 -3 0 -3 
C -0.795609 -3 -1.55874 -2.683901 -2.12132 -2.12132 
C -2.683901 -1.55874 -3 -0.795609 -3 0 
C -3 0.795609 -2.683901 1.55874 -2.12132 2.12132 
C -1.55874 2.683901 -0.795609 3 0 3 
z
" style="stroke: #0000ff"/>
    </defs>
    <g clip-path="url(#p5eff4d2dfa)">
     <use xlink:href="#m55a7fe14c7" x="162.72768" y="110.4192" style="fill: #0000ff; stroke: #0000ff"/>
    </g>
   </g>
   <g id="PathCollection_60">
    <defs>
     <path id="m378e4e08a5" d="M 0 3 
C 0.795609 3 1.55874 2.683901 2.12132 2.12132 
C 2.683901 1.55874 3 0.795609 3 0 
C 3 -0.795609 2.683901 -1.55874 2.12132 -2.12132 
C 1.55874 -2.683901 0.795609 -3 0 -3 
C -0.795609 -3 -1.55874 -2.683901 -2.12132 -2.12132 
C -2.683901 -1.55874 -3 -0.795609 -3 0 
C -3 0.795609 -2.683901 1.55874 -2.12132 2.12132 
C -1.55874 2.683901 -0.795609 3 0 3 
z
" style="stroke: #008000"/>
    </defs>
    <g clip-path="url(#p5eff4d2dfa)">
     <use xlink:href="#m378e4e08a5" x="249.12" y="180.576" style="fill: #008000; stroke: #008000"/>
    </g>
   </g>
   <g id="PathCollection_61"/>
   <g id="PathCollection_62"/>
   <g id="PathCollection_63"/>
   <g id="PathCollection_64"/>
   <g id="PathCollection_65"/>
   <g id="PathCollection_66"/>
   <g id="PathCollection_67"/>
   <g id="PathCollection_68"/>
   <g id="PathCollection_69"/>
   <g id="PathCollection_70"/>
   <g id="PathCollection_71"/>
   <g id="PathCollection_72"/>
   <g id="PathCollection_73"/>
   <g id="PathCollection_74"/>
   <g id="PathCollection_75"/>
   <g id="PathCollection_76"/>
   <g id="PathCollection_77"/>
   <g id="PathCollection_78"/>
   <g id="PathCollection_79"/>
   <g id="PathCollection_80"/>
   <g id="PathCollection_81"/>
   <g id="PathCollection_82"/>
   <g id="PathCollection_83"/>
   <g id="PathCollection_84"/>
   <g id="PathCollection_85"/>
   <g id="PathCollection_86"/>
   <g id="PathCollection_87"/>
   <g id="PathCollection_88"/>
   <g id="PathCollection_89"/>
   <g id="patch_6">
    <path d="M 181.92 73.056 
L 181.92 99.936 
L 155.04 99.936 
L 155.04 73.056 
L 128.16 73.056 
L 128.16 126.816 
L 181.92 126.816 
L 181.92 180.576 
L 101.28 180.576 
L 101.28 73.056 
L 74.4 73.056 
L 74.4 46.176 
L 101.28 46.176 
L 101.28 19.296 
L 20.64 19.296 
L 20.64 46.176 
L 47.52 46.176 
L 47.52 73.056 
L 20.64 126.816 
L 20.64 234.336 
L 74.4 234.336 
L 74.4 261.216 
L 155.04 261.216 
L 208.8 207.456 
L 208.8 153.696 
L 262.56 207.456 
L 262.56 153.696 
L 289.44 180.576 
L 289.44 99.936 
z
" clip-path="url(#p5eff4d2dfa)" style="fill: #d3d3d3; stroke: #000000; stroke-width: 2; stroke-linejoin: miter"/>
   </g>
   <g id="PathCollection_90"/>
   <g id="PathCollection_91"/>
   <g id="PathCollection_92"/>
   <g id="PathCollection_93"/>
   <g id="PathCollection_94"/>
   <g id="PathCollection_95"/>
   <g id="PathCollection_96"/>
   <g id="PathCollection_97"/>
   <g id="PathCollection_98"/>
   <g id="PathCollection_99"/>
   <g id="PathCollection_100"/>
   <g id="PathCollection_101"/>
   <g id="PathCollection_102"/>
   <g id="PathCollection_103"/>
   <g id="PathCollection_104"/>
   <g id="PathCollection_105"/>
   <g id="PathCollection_106"/>
   <g id="PathCollection_107"/>
   <g id="PathCollection_108"/>
   <g id="PathCollection_109"/>
   <g id="PathCollection_110"/>
   <g id="PathCollection_111"/>
   <g id="PathCollection_112"/>
   <g id="patch_7">
    <path d="M 162.72768 110.4192 
L 174.752 126.816 
L 181.92 126.816 
L 181.92 180.576 
L 101.28 180.576 
L 101.28 73.056 
L 74.4 73.056 
L 74.4 46.176 
L 101.28 46.176 
L 101.28 19.296 
L 20.64 19.296 
L 20.64 46.176 
L 47.52 46.176 
L 47.52 73.056 
L 20.64 126.816 
L 20.64 234.336 
L 74.4 234.336 
L 74.4 261.216 
L 155.04 261.216 
L 208.8 207.456 
L 208.8 153.696 
L 262.56 207.456 
L 262.56 153.696 
z
" clip-path="url(#p5eff4d2dfa)" style="fill: #90ee90; stroke: #000000; stroke-width: 2; stroke-linejoin: miter"/>
   </g>
   <g id="PathCollection_113"/>
   <g id="PathCollection_114"/>
   <g id="PathCollection_115"/>
   <g id="patch_8">
    <path d="M 135.328 73.056 
L 155.04 99.936 
L 155.04 73.056 
z
" clip-path="url(#p5eff4d2dfa)" style="fill: #ffc0cb; stroke: #000000; stroke-width: 2; stroke-linejoin: miter"/>
   </g>
   <g id="PathCollection_116"/>
   <g id="PathCollection_117"/>
   <g id="PathCollection_118"/>
   <g id="patch_9">
    <path d="M 262.56 153.696 
L 289.44 180.576 
L 289.44 165.348342 
z
" clip-path="url(#p5eff4d2dfa)" style="fill: #ffc0cb; stroke: #000000; stroke-width: 2; stroke-linejoin: miter"/>
   </g>
   <g id="PathCollection_119">
    <g clip-path="url(#p5eff4d2dfa)">
     <use xlink:href="#m55a7fe14c7" x="162.72768" y="110.4192" style="fill: #0000ff; stroke: #0000ff"/>
    </g>
   </g>
   <g id="PathCollection_120">
    <defs>
     <path id="m894d82dc37" d="M 0 3 
C 0.795609 3 1.55874 2.683901 2.12132 2.12132 
C 2.683901 1.55874 3 0.795609 3 0 
C 3 -0.795609 2.683901 -1.55874 2.12132 -2.12132 
C 1.55874 -2.683901 0.795609 -3 0 -3 
C -0.795609 -3 -1.55874 -2.683901 -2.12132 -2.12132 
C -2.683901 -1.55874 -3 -0.795609 -3 0 
C -3 0.795609 -2.683901 1.55874 -2.12132 2.12132 
C -1.55874 2.683901 -0.795609 3 0 3 
z
" style="stroke: #000000"/>
    </defs>
    <g clip-path="url(#p5eff4d2dfa)">
     <use xlink:href="#m894d82dc37" x="87.84" y="32.736" style="stroke: #000000"/>
    </g>
   </g>
   <g id="PathCollection_121">
    <g clip-path="url(#p5eff4d2dfa)">
     <use xlink:href="#m894d82dc37" x="70.47552" y="37.22496" style="stroke: #000000"/>
    </g>
   </g>
   <g id="PathCollection_122">
    <g clip-path="url(#p5eff4d2dfa)">
     <use xlink:href="#m894d82dc37" x="70.47552" y="37.22496" style="stroke: #000000"/>
    </g>
   </g>
   <g id="PathCollection_123">
    <g clip-path="url(#p5eff4d2dfa)">
     <use xlink:href="#m894d82dc37" x="64.69632" y="43.19232" style="stroke: #000000"/>
    </g>
   </g>
   <g id="PathCollection_124">
    <g clip-path="url(#p5eff4d2dfa)">
     <use xlink:href="#m894d82dc37" x="64.69632" y="43.19232" style="stroke: #000000"/>
    </g>
   </g>
   <g id="PathCollection_125">
    <g clip-path="url(#p5eff4d2dfa)">
     <use xlink:href="#m894d82dc37" x="65.44896" y="54.02496" style="stroke: #000000"/>
    </g>
   </g>
   <g id="PathCollection_126">
    <g clip-path="url(#p5eff4d2dfa)">
     <use xlink:href="#m894d82dc37" x="65.44896" y="54.02496" style="stroke: #000000"/>
    </g>
   </g>
   <g id="PathCollection_127">
    <g clip-path="url(#p5eff4d2dfa)">
     <use xlink:href="#m894d82dc37" x="63.19104" y="59.616" style="stroke: #000000"/>
    </g>
   </g>
   <g id="PathCollection_128">
    <g clip-path="url(#p5eff4d2dfa)">
     <use xlink:href="#m894d82dc37" x="63.19104" y="59.616" style="stroke: #000000"/>
    </g>
   </g>
   <g id="PathCollection_129">
    <g clip-path="url(#p5eff4d2dfa)">
     <use xlink:href="#m894d82dc37" x="64.5888" y="67.08864" style="stroke: #000000"/>
    </g>
   </g>
   <g id="PathCollection_130">
    <g clip-path="url(#p5eff4d2dfa)">
     <use xlink:href="#m894d82dc37" x="64.5888" y="67.08864" style="stroke: #000000"/>
    </g>
   </g>
   <g id="PathCollection_131">
    <g clip-path="url(#p5eff4d2dfa)">
     <use xlink:href="#m894d82dc37" x="70.55616" y="83.808" style="stroke: #000000"/>
    </g>
   </g>
   <g id="PathCollection_132">
    <g clip-path="url(#p5eff4d2dfa)">
     <use xlink:href="#m894d82dc37" x="70.55616" y="83.808" style="stroke: #000000"/>
    </g>
   </g>
   <g id="PathCollection_133">
    <g clip-path="url(#p5eff4d2dfa)">
     <use xlink:href="#m894d82dc37" x="76.9536" y="101.73696" style="stroke: #000000"/>
    </g>
   </g>
   <g id="PathCollection_134">
    <g clip-path="url(#p5eff4d2dfa)">
     <use xlink:href="#m894d82dc37" x="76.9536" y="101.73696" style="stroke: #000000"/>
    </g>
   </g>
   <g id="PathCollection_135">
    <g clip-path="url(#p5eff4d2dfa)">
     <use xlink:href="#m894d82dc37" x="85.93152" y="126.816" style="stroke: #000000"/>
    </g>
   </g>
   <g id="PathCollection_136">
    <g clip-path="url(#p5eff4d2dfa)">
     <use xlink:href="#m894d82dc37" x="85.93152" y="126.816" style="stroke: #000000"/>
    </g>
   </g>
   <g id="PathCollection_137">
    <g clip-path="url(#p5eff4d2dfa)">
     <use xlink:href="#m894d82dc37" x="88.9152" y="147.72864" style="stroke: #000000"/>
    </g>
   </g>
   <g id="PathCollection_138">
    <g clip-path="url(#p5eff4d2dfa)">
     <use xlink:href="#m894d82dc37" x="88.9152" y="147.72864" style="stroke: #000000"/>
    </g>
   </g>
   <g id="PathCollection_139">
    <g clip-path="url(#p5eff4d2dfa)">
     <use xlink:href="#m894d82dc37" x="91.3344" y="164.448" style="stroke: #000000"/>
    </g>
   </g>
   <g id="PathCollection_140">
    <g clip-path="url(#p5eff4d2dfa)">
     <use xlink:href="#m894d82dc37" x="91.3344" y="164.448" style="stroke: #000000"/>
    </g>
   </g>
   <g id="PathCollection_141">
    <g clip-path="url(#p5eff4d2dfa)">
     <use xlink:href="#m894d82dc37" x="98.75328" y="187.91424" style="stroke: #000000"/>
    </g>
   </g>
   <g id="PathCollection_142">
    <g clip-path="url(#p5eff4d2dfa)">
     <use xlink:href="#m894d82dc37" x="98.75328" y="187.91424" style="stroke: #000000"/>
    </g>
   </g>
   <g id="PathCollection_143">
    <g clip-path="url(#p5eff4d2dfa)">
     <use xlink:href="#m894d82dc37" x="108.4032" y="216.97152" style="stroke: #000000"/>
    </g>
   </g>
   <g id="PathCollection_144">
    <g clip-path="url(#p5eff4d2dfa)">
     <use xlink:href="#m894d82dc37" x="108.4032" y="216.97152" style="stroke: #000000"/>
    </g>
   </g>
   <g id="PathCollection_145">
    <g clip-path="url(#p5eff4d2dfa)">
     <use xlink:href="#m894d82dc37" x="113.96736" y="233.90592" style="stroke: #000000"/>
    </g>
   </g>
   <g id="PathCollection_146">
    <g clip-path="url(#p5eff4d2dfa)">
     <use xlink:href="#m894d82dc37" x="113.96736" y="233.90592" style="stroke: #000000"/>
    </g>
   </g>
   <g id="PathCollection_147">
    <g clip-path="url(#p5eff4d2dfa)">
     <use xlink:href="#m894d82dc37" x="118.08" y="232.53504" style="stroke: #000000"/>
    </g>
   </g>
   <g id="PathCollection_148">
    <g clip-path="url(#p5eff4d2dfa)">
     <use xlink:href="#m894d82dc37" x="118.08" y="232.53504" style="stroke: #000000"/>
    </g>
   </g>
   <g id="PathCollection_149">
    <g clip-path="url(#p5eff4d2dfa)">
     <use xlink:href="#m894d82dc37" x="138.32064" y="219.4176" style="stroke: #000000"/>
    </g>
   </g>
   <g id="PathCollection_150">
    <g clip-path="url(#p5eff4d2dfa)">
     <use xlink:href="#m894d82dc37" x="138.32064" y="219.4176" style="stroke: #000000"/>
    </g>
   </g>
   <g id="PathCollection_151">
    <g clip-path="url(#p5eff4d2dfa)">
     <use xlink:href="#m894d82dc37" x="161.088" y="210.33216" style="stroke: #000000"/>
    </g>
   </g>
   <g id="PathCollection_152">
    <g clip-path="url(#p5eff4d2dfa)">
     <use xlink:href="#m894d82dc37" x="161.088" y="210.33216" style="stroke: #000000"/>
    </g>
   </g>
   <g id="PathCollection_153">
    <g clip-path="url(#p5eff4d2dfa)">
     <use xlink:href="#m894d82dc37" x="184.608" y="184.41984" style="stroke: #000000"/>
    </g>
   </g>
   <g id="PathCollection_154">
    <g clip-path="url(#p5eff4d2dfa)">
     <use xlink:href="#m894d82dc37" x="184.608" y="184.41984" style="stroke: #000000"/>
    </g>
   </g>
   <g id="PathCollection_155">
    <g clip-path="url(#p5eff4d2dfa)">
     <use xlink:href="#m894d82dc37" x="193.55904" y="171.62496" style="stroke: #000000"/>
    </g>
   </g>
   <g id="PathCollection_156">
    <g clip-path="url(#p5eff4d2dfa)">
     <use xlink:href="#m894d82dc37" x="193.55904" y="171.62496" style="stroke: #000000"/>
    </g>
   </g>
   <g id="PathCollection_157">
    <g clip-path="url(#p5eff4d2dfa)">
     <use xlink:href="#m894d82dc37" x="190.87104" y="162.64704" style="stroke: #000000"/>
    </g>
   </g>
   <g id="PathCollection_158">
    <g clip-path="url(#p5eff4d2dfa)">
     <use xlink:href="#m894d82dc37" x="190.87104" y="162.64704" style="stroke: #000000"/>
    </g>
   </g>
   <g id="PathCollection_159">
    <g clip-path="url(#p5eff4d2dfa)">
     <use xlink:href="#m894d82dc37" x="190.87104" y="144.74496" style="stroke: #000000"/>
    </g>
   </g>
   <g id="PathCollection_160">
    <g clip-path="url(#p5eff4d2dfa)">
     <use xlink:href="#m894d82dc37" x="190.87104" y="144.74496" style="stroke: #000000"/>
    </g>
   </g>
   <g id="PathCollection_161">
    <g clip-path="url(#p5eff4d2dfa)">
     <use xlink:href="#m894d82dc37" x="199.84896" y="138.75072" style="stroke: #000000"/>
    </g>
   </g>
   <g id="PathCollection_162">
    <g clip-path="url(#p5eff4d2dfa)">
     <use xlink:href="#m894d82dc37" x="199.84896" y="138.75072" style="stroke: #000000"/>
    </g>
   </g>
   <g id="PathCollection_163">
    <g clip-path="url(#p5eff4d2dfa)">
     <use xlink:href="#m894d82dc37" x="199.84896" y="129.79968" style="stroke: #000000"/>
    </g>
   </g>
   <g id="PathCollection_164">
    <g clip-path="url(#p5eff4d2dfa)">
     <use xlink:href="#m894d82dc37" x="199.84896" y="129.79968" style="stroke: #000000"/>
    </g>
   </g>
   <g id="PathCollection_165">
    <g clip-path="url(#p5eff4d2dfa)">
     <use xlink:href="#m894d82dc37" x="190.87104" y="122.32704" style="stroke: #000000"/>
    </g>
   </g>
   <g id="PathCollection_166">
    <g clip-path="url(#p5eff4d2dfa)">
     <use xlink:href="#m894d82dc37" x="190.87104" y="122.32704" style="stroke: #000000"/>
    </g>
   </g>
   <g id="PathCollection_167">
    <g clip-path="url(#p5eff4d2dfa)">
     <use xlink:href="#m894d82dc37" x="171.11424" y="111.81696" style="stroke: #000000"/>
    </g>
   </g>
   <g id="PathCollection_168">
    <g clip-path="url(#p5eff4d2dfa)">
     <use xlink:href="#m894d82dc37" x="171.11424" y="111.81696" style="stroke: #000000"/>
    </g>
   </g>
   <g id="PathCollection_169">
    <g clip-path="url(#p5eff4d2dfa)">
     <use xlink:href="#m894d82dc37" x="162.72768" y="110.4192" style="stroke: #000000"/>
    </g>
   </g>
   <g id="PathCollection_170">
    <g clip-path="url(#p5eff4d2dfa)">
     <use xlink:href="#m55a7fe14c7" x="87.84" y="32.736" style="fill: #0000ff; stroke: #0000ff"/>
    </g>
   </g>
   <g id="PathCollection_171">
    <defs>
     <path id="m71254fb7a5" d="M 0 3 
C 0.795609 3 1.55874 2.683901 2.12132 2.12132 
C 2.683901 1.55874 3 0.795609 3 0 
C 3 -0.795609 2.683901 -1.55874 2.12132 -2.12132 
C 1.55874 -2.683901 0.795609 -3 0 -3 
C -0.795609 -3 -1.55874 -2.683901 -2.12132 -2.12132 
C -2.683901 -1.55874 -3 -0.795609 -3 0 
C -3 0.795609 -2.683901 1.55874 -2.12132 2.12132 
C -1.55874 2.683901 -0.795609 3 0 3 
z
" style="stroke: #ff0000"/>
    </defs>
    <g clip-path="url(#p5eff4d2dfa)">
     <use xlink:href="#m71254fb7a5" x="162.72768" y="110.4192" style="fill: #ff0000; stroke: #ff0000"/>
    </g>
   </g>
   <g id="PathCollection_172">
    <g clip-path="url(#p5eff4d2dfa)">
     <use xlink:href="#m378e4e08a5" x="249.12" y="180.576" style="fill: #008000; stroke: #008000"/>
    </g>
   </g>
   <g id="line2d_1">
    <path d="M 87.84 32.736 
L 70.47552 37.22496 
" clip-path="url(#p5eff4d2dfa)" style="fill: none; stroke: #000000; stroke-width: 1.5; stroke-linecap: square"/>
   </g>
   <g id="line2d_2">
    <path d="M 70.47552 37.22496 
L 64.69632 43.19232 
" clip-path="url(#p5eff4d2dfa)" style="fill: none; stroke: #000000; stroke-width: 1.5; stroke-linecap: square"/>
   </g>
   <g id="line2d_3">
    <path d="M 64.69632 43.19232 
L 65.44896 54.02496 
" clip-path="url(#p5eff4d2dfa)" style="fill: none; stroke: #000000; stroke-width: 1.5; stroke-linecap: square"/>
   </g>
   <g id="line2d_4">
    <path d="M 65.44896 54.02496 
L 63.19104 59.616 
" clip-path="url(#p5eff4d2dfa)" style="fill: none; stroke: #000000; stroke-width: 1.5; stroke-linecap: square"/>
   </g>
   <g id="line2d_5">
    <path d="M 63.19104 59.616 
L 64.5888 67.08864 
" clip-path="url(#p5eff4d2dfa)" style="fill: none; stroke: #000000; stroke-width: 1.5; stroke-linecap: square"/>
   </g>
   <g id="line2d_6">
    <path d="M 64.5888 67.08864 
L 70.55616 83.808 
" clip-path="url(#p5eff4d2dfa)" style="fill: none; stroke: #000000; stroke-width: 1.5; stroke-linecap: square"/>
   </g>
   <g id="line2d_7">
    <path d="M 70.55616 83.808 
L 76.9536 101.73696 
" clip-path="url(#p5eff4d2dfa)" style="fill: none; stroke: #000000; stroke-width: 1.5; stroke-linecap: square"/>
   </g>
   <g id="line2d_8">
    <path d="M 76.9536 101.73696 
L 85.93152 126.816 
" clip-path="url(#p5eff4d2dfa)" style="fill: none; stroke: #000000; stroke-width: 1.5; stroke-linecap: square"/>
   </g>
   <g id="line2d_9">
    <path d="M 85.93152 126.816 
L 88.9152 147.72864 
" clip-path="url(#p5eff4d2dfa)" style="fill: none; stroke: #000000; stroke-width: 1.5; stroke-linecap: square"/>
   </g>
   <g id="line2d_10">
    <path d="M 88.9152 147.72864 
L 91.3344 164.448 
" clip-path="url(#p5eff4d2dfa)" style="fill: none; stroke: #000000; stroke-width: 1.5; stroke-linecap: square"/>
   </g>
   <g id="line2d_11">
    <path d="M 91.3344 164.448 
L 98.75328 187.91424 
" clip-path="url(#p5eff4d2dfa)" style="fill: none; stroke: #000000; stroke-width: 1.5; stroke-linecap: square"/>
   </g>
   <g id="line2d_12">
    <path d="M 98.75328 187.91424 
L 108.4032 216.97152 
" clip-path="url(#p5eff4d2dfa)" style="fill: none; stroke: #000000; stroke-width: 1.5; stroke-linecap: square"/>
   </g>
   <g id="line2d_13">
    <path d="M 108.4032 216.97152 
L 113.96736 233.90592 
" clip-path="url(#p5eff4d2dfa)" style="fill: none; stroke: #000000; stroke-width: 1.5; stroke-linecap: square"/>
   </g>
   <g id="line2d_14">
    <path d="M 113.96736 233.90592 
L 118.08 232.53504 
" clip-path="url(#p5eff4d2dfa)" style="fill: none; stroke: #000000; stroke-width: 1.5; stroke-linecap: square"/>
   </g>
   <g id="line2d_15">
    <path d="M 118.08 232.53504 
L 138.32064 219.4176 
" clip-path="url(#p5eff4d2dfa)" style="fill: none; stroke: #000000; stroke-width: 1.5; stroke-linecap: square"/>
   </g>
   <g id="line2d_16">
    <path d="M 138.32064 219.4176 
L 161.088 210.33216 
" clip-path="url(#p5eff4d2dfa)" style="fill: none; stroke: #000000; stroke-width: 1.5; stroke-linecap: square"/>
   </g>
   <g id="line2d_17">
    <path d="M 161.088 210.33216 
L 184.608 184.41984 
" clip-path="url(#p5eff4d2dfa)" style="fill: none; stroke: #000000; stroke-width: 1.5; stroke-linecap: square"/>
   </g>
   <g id="line2d_18">
    <path d="M 184.608 184.41984 
L 193.55904 171.62496 
" clip-path="url(#p5eff4d2dfa)" style="fill: none; stroke: #000000; stroke-width: 1.5; stroke-linecap: square"/>
   </g>
   <g id="line2d_19">
    <path d="M 193.55904 171.62496 
L 190.87104 162.64704 
" clip-path="url(#p5eff4d2dfa)" style="fill: none; stroke: #000000; stroke-width: 1.5; stroke-linecap: square"/>
   </g>
   <g id="line2d_20">
    <path d="M 190.87104 162.64704 
L 190.87104 144.74496 
" clip-path="url(#p5eff4d2dfa)" style="fill: none; stroke: #000000; stroke-width: 1.5; stroke-linecap: square"/>
   </g>
   <g id="line2d_21">
    <path d="M 190.87104 144.74496 
L 199.84896 138.75072 
" clip-path="url(#p5eff4d2dfa)" style="fill: none; stroke: #000000; stroke-width: 1.5; stroke-linecap: square"/>
   </g>
   <g id="line2d_22">
    <path d="M 199.84896 138.75072 
L 199.84896 129.79968 
" clip-path="url(#p5eff4d2dfa)" style="fill: none; stroke: #000000; stroke-width: 1.5; stroke-linecap: square"/>
   </g>
   <g id="line2d_23">
    <path d="M 199.84896 129.79968 
L 190.87104 122.32704 
" clip-path="url(#p5eff4d2dfa)" style="fill: none; stroke: #000000; stroke-width: 1.5; stroke-linecap: square"/>
   </g>
   <g id="line2d_24">
    <path d="M 190.87104 122.32704 
L 171.11424 111.81696 
" clip-path="url(#p5eff4d2dfa)" style="fill: none; stroke: #000000; stroke-width: 1.5; stroke-linecap: square"/>
   </g>
   <g id="line2d_25">
    <path d="M 171.11424 111.81696 
L 162.72768 110.4192 
" clip-path="url(#p5eff4d2dfa)" style="fill: none; stroke: #000000; stroke-width: 1.5; stroke-linecap: square"/>
   </g>
  </g>
 </g>
 <defs>
  <clipPath id="p5eff4d2dfa">
   <rect x="7.2" y="7.2" width="295.68" height="266.112"/>
  </clipPath>
 </defs>
</svg>
