<?xml version="1.0" encoding="utf-8" standalone="no"?>
<!DOCTYPE svg PUBLIC "-//W3C//DTD SVG 1.1//EN"
  "http://www.w3.org/Graphics/SVG/1.1/DTD/svg11.dtd">
<svg xmlns:xlink="http://www.w3.org/1999/xlink" width="339.648pt" height="280.512pt" viewBox="0 0 339.648 280.512" xmlns="http://www.w3.org/2000/svg" version="1.1">
 <metadata>
  <rdf:RDF xmlns:dc="http://purl.org/dc/elements/1.1/" xmlns:cc="http://creativecommons.org/ns#" xmlns:rdf="http://www.w3.org/1999/02/22-rdf-syntax-ns#">
   <cc:Work>
    <dc:type rdf:resource="http://purl.org/dc/dcmitype/StillImage"/>
    <dc:date>2023-02-26T13:36:08.999060</dc:date>
    <dc:format>image/svg+xml</dc:format>
    <dc:creator>
     <cc:Agent>
      <dc:title>Matplotlib v3.5.2, https://matplotlib.org/</dc:title>
     </cc:Agent>
    </dc:creator>
   </cc:Work>
  </rdf:RDF>
 </metadata>
 <defs>
  <style type="text/css">*{stroke-linejoin: round; stroke-linecap: butt}</style>
 </defs>
 <g id="figure_1">
  <g id="patch_1">
   <path d="M 0 280.512 
L 339.648 280.512 
L 339.648 0 
L 0 0 
z
" style="fill: #ffffff"/>
  </g>
  <g id="axes_1">
   <g id="PathCollection_1"/>
   <g id="PathCollection_2"/>
   <g id="PathCollection_3"/>
   <g id="PathCollection_4"/>
   <g id="PathCollection_5"/>
   <g id="PathCollection_6"/>
   <g id="PathCollection_7"/>
   <g id="PathCollection_8"/>
   <g id="PathCollection_9"/>
   <g id="PathCollection_10"/>
   <g id="PathCollection_11"/>
   <g id="PathCollection_12"/>
   <g id="PathCollection_13"/>
   <g id="PathCollection_14"/>
   <g id="PathCollection_15"/>
   <g id="PathCollection_16"/>
   <g id="PathCollection_17"/>
   <g id="PathCollection_18"/>
   <g id="PathCollection_19"/>
   <g id="PathCollection_20"/>
   <g id="PathCollection_21"/>
   <g id="PathCollection_22"/>
   <g id="patch_2">
    <path d="M 210.144 99.936 
L 210.144 73.056 
L 263.904 73.056 
L 263.904 19.296 
L 102.624 19.296 
L 102.624 73.056 
L 156.384 73.056 
L 156.384 99.936 
L 21.984 99.936 
L 21.984 261.216 
L 75.744 261.216 
L 75.744 153.696 
L 156.384 153.696 
L 156.384 180.576 
L 102.624 180.576 
L 102.624 234.336 
L 263.904 234.336 
L 263.904 180.576 
L 210.144 180.576 
L 210.144 153.696 
L 317.664 153.696 
L 317.664 99.936 
z
" clip-path="url(#pf2f659722c)" style="fill: #d3d3d3; stroke: #000000; stroke-width: 2; stroke-linejoin: miter"/>
   </g>
   <g id="PathCollection_23"/>
   <g id="PathCollection_24"/>
   <g id="PathCollection_25"/>
   <g id="PathCollection_26"/>
   <g id="PathCollection_27"/>
   <g id="PathCollection_28"/>
   <g id="PathCollection_29"/>
   <g id="PathCollection_30"/>
   <g id="PathCollection_31"/>
   <g id="PathCollection_32"/>
   <g id="PathCollection_33"/>
   <g id="PathCollection_34"/>
   <g id="PathCollection_35"/>
   <g id="PathCollection_36"/>
   <g id="PathCollection_37"/>
   <g id="PathCollection_38"/>
   <g id="PathCollection_39"/>
   <g id="PathCollection_40"/>
   <g id="PathCollection_41"/>
   <g id="patch_3">
    <path d="M 210.144 99.936 
L 210.144 73.056 
L 263.904 73.056 
L 263.904 19.296 
L 102.624 19.296 
L 102.624 73.056 
L 156.384 73.056 
L 156.384 99.936 
L 21.984 99.936 
L 21.984 261.216 
L 75.744 261.216 
L 75.744 153.696 
L 156.384 153.696 
L 156.384 164.87808 
L 183.264 172.72704 
L 210.144 164.87808 
L 210.144 153.696 
L 317.664 153.696 
L 317.664 99.936 
z
" clip-path="url(#pf2f659722c)" style="fill: #90ee90; stroke: #000000; stroke-width: 2; stroke-linejoin: miter"/>
   </g>
   <g id="PathCollection_42"/>
   <g id="PathCollection_43"/>
   <g id="PathCollection_44"/>
   <g id="patch_4">
    <path d="M 102.624 196.27392 
L 156.384 180.576 
L 102.624 180.576 
z
" clip-path="url(#pf2f659722c)" style="fill: #ffc0cb; stroke: #000000; stroke-width: 2; stroke-linejoin: miter"/>
   </g>
   <g id="PathCollection_45"/>
   <g id="PathCollection_46"/>
   <g id="PathCollection_47"/>
   <g id="patch_5">
    <path d="M 210.144 180.576 
L 263.904 196.27392 
L 263.904 180.576 
z
" clip-path="url(#pf2f659722c)" style="fill: #ffc0cb; stroke: #000000; stroke-width: 2; stroke-linejoin: miter"/>
   </g>
   <g id="PathCollection_48">
    <defs>
     <path id="m1747b24780" d="M 0 3 
C 0.795609 3 1.55874 2.683901 2.12132 2.12132 
C 2.683901 1.55874 3 0.795609 3 0 
C 3 -0.795609 2.683901 -1.55874 2.12132 -2.12132 
C 1.55874 -2.683901 0.795609 -3 0 -3 
C -0.795609 -3 -1.55874 -2.683901 -2.12132 -2.12132 
C -2.683901 -1.55874 -3 -0.795609 -3 0 
C -3 0.795609 -2.683901 1.55874 -2.12132 2.12132 
C -1.55874 2.683901 -0.795609 3 0 3 
z
" style="stroke: #0000ff"/>
    </defs>
    <g clip-path="url(#pf2f659722c)">
     <use xlink:href="#m1747b24780" x="183.264" y="172.72704" style="fill: #0000ff; stroke: #0000ff"/>
    </g>
   </g>
   <g id="PathCollection_49">
    <defs>
     <path id="m7a9c056fbe" d="M 0 3 
C 0.795609 3 1.55874 2.683901 2.12132 2.12132 
C 2.683901 1.55874 3 0.795609 3 0 
C 3 -0.795609 2.683901 -1.55874 2.12132 -2.12132 
C 1.55874 -2.683901 0.795609 -3 0 -3 
C -0.795609 -3 -1.55874 -2.683901 -2.12132 -2.12132 
C -2.683901 -1.55874 -3 -0.795609 -3 0 
C -3 0.795609 -2.683901 1.55874 -2.12132 2.12132 
C -1.55874 2.683901 -0.795609 3 0 3 
z
" style="stroke: #008000"/>
    </defs>
    <g clip-path="url(#pf2f659722c)">
     <use xlink:href="#m7a9c056fbe" x="290.784" y="140.256" style="fill: #008000; stroke: #008000"/>
    </g>
   </g>
   <g id="PathCollection_50"/>
   <g id="PathCollection_51"/>
   <g id="PathCollection_52"/>
   <g id="PathCollection_53"/>
   <g id="PathCollection_54"/>
   <g id="PathCollection_55"/>
   <g id="PathCollection_56"/>
   <g id="PathCollection_57"/>
   <g id="PathCollection_58"/>
   <g id="PathCollection_59"/>
   <g id="PathCollection_60"/>
   <g id="PathCollection_61"/>
   <g id="PathCollection_62"/>
   <g id="PathCollection_63"/>
   <g id="PathCollection_64"/>
   <g id="PathCollection_65"/>
   <g id="PathCollection_66"/>
   <g id="PathCollection_67"/>
   <g id="PathCollection_68"/>
   <g id="PathCollection_69"/>
   <g id="PathCollection_70"/>
   <g id="PathCollection_71"/>
   <g id="patch_6">
    <path d="M 210.144 99.936 
L 210.144 73.056 
L 263.904 73.056 
L 263.904 19.296 
L 102.624 19.296 
L 102.624 73.056 
L 156.384 73.056 
L 156.384 99.936 
L 21.984 99.936 
L 21.984 261.216 
L 75.744 261.216 
L 75.744 153.696 
L 156.384 153.696 
L 156.384 180.576 
L 102.624 180.576 
L 102.624 234.336 
L 263.904 234.336 
L 263.904 180.576 
L 210.144 180.576 
L 210.144 153.696 
L 317.664 153.696 
L 317.664 99.936 
z
" clip-path="url(#pf2f659722c)" style="fill: #d3d3d3; stroke: #000000; stroke-width: 2; stroke-linejoin: miter"/>
   </g>
   <g id="PathCollection_72"/>
   <g id="PathCollection_73"/>
   <g id="PathCollection_74"/>
   <g id="PathCollection_75"/>
   <g id="PathCollection_76"/>
   <g id="PathCollection_77"/>
   <g id="PathCollection_78"/>
   <g id="PathCollection_79"/>
   <g id="PathCollection_80"/>
   <g id="PathCollection_81"/>
   <g id="PathCollection_82"/>
   <g id="PathCollection_83"/>
   <g id="PathCollection_84"/>
   <g id="PathCollection_85"/>
   <g id="PathCollection_86"/>
   <g id="PathCollection_87"/>
   <g id="PathCollection_88"/>
   <g id="PathCollection_89"/>
   <g id="PathCollection_90"/>
   <g id="patch_7">
    <path d="M 210.144 99.936 
L 210.144 73.056 
L 263.904 73.056 
L 263.904 19.296 
L 102.624 19.296 
L 102.624 73.056 
L 156.384 73.056 
L 156.384 99.936 
L 21.984 99.936 
L 21.984 261.216 
L 75.744 261.216 
L 75.744 153.696 
L 156.384 153.696 
L 156.384 164.87808 
L 183.264 172.72704 
L 210.144 164.87808 
L 210.144 153.696 
L 317.664 153.696 
L 317.664 99.936 
z
" clip-path="url(#pf2f659722c)" style="fill: #90ee90; stroke: #000000; stroke-width: 2; stroke-linejoin: miter"/>
   </g>
   <g id="PathCollection_91"/>
   <g id="PathCollection_92"/>
   <g id="PathCollection_93"/>
   <g id="patch_8">
    <path d="M 102.624 196.27392 
L 156.384 180.576 
L 102.624 180.576 
z
" clip-path="url(#pf2f659722c)" style="fill: #ffc0cb; stroke: #000000; stroke-width: 2; stroke-linejoin: miter"/>
   </g>
   <g id="PathCollection_94"/>
   <g id="PathCollection_95"/>
   <g id="PathCollection_96"/>
   <g id="patch_9">
    <path d="M 210.144 180.576 
L 263.904 196.27392 
L 263.904 180.576 
z
" clip-path="url(#pf2f659722c)" style="fill: #ffc0cb; stroke: #000000; stroke-width: 2; stroke-linejoin: miter"/>
   </g>
   <g id="PathCollection_97">
    <g clip-path="url(#pf2f659722c)">
     <use xlink:href="#m1747b24780" x="183.264" y="172.72704" style="fill: #0000ff; stroke: #0000ff"/>
    </g>
   </g>
   <g id="PathCollection_98">
    <defs>
     <path id="mcefabff860" d="M 0 3 
C 0.795609 3 1.55874 2.683901 2.12132 2.12132 
C 2.683901 1.55874 3 0.795609 3 0 
C 3 -0.795609 2.683901 -1.55874 2.12132 -2.12132 
C 1.55874 -2.683901 0.795609 -3 0 -3 
C -0.795609 -3 -1.55874 -2.683901 -2.12132 -2.12132 
C -2.683901 -1.55874 -3 -0.795609 -3 0 
C -3 0.795609 -2.683901 1.55874 -2.12132 2.12132 
C -1.55874 2.683901 -0.795609 3 0 3 
z
" style="stroke: #000000"/>
    </defs>
    <g clip-path="url(#pf2f659722c)">
     <use xlink:href="#mcefabff860" x="48.864" y="216.40704" style="stroke: #000000"/>
    </g>
   </g>
   <g id="PathCollection_99">
    <g clip-path="url(#pf2f659722c)">
     <use xlink:href="#mcefabff860" x="39.91296" y="176.38272" style="stroke: #000000"/>
    </g>
   </g>
   <g id="PathCollection_100">
    <g clip-path="url(#pf2f659722c)">
     <use xlink:href="#mcefabff860" x="39.91296" y="176.38272" style="stroke: #000000"/>
    </g>
   </g>
   <g id="PathCollection_101">
    <g clip-path="url(#pf2f659722c)">
     <use xlink:href="#mcefabff860" x="55.9872" y="164.90496" style="stroke: #000000"/>
    </g>
   </g>
   <g id="PathCollection_102">
    <g clip-path="url(#pf2f659722c)">
     <use xlink:href="#mcefabff860" x="55.9872" y="164.90496" style="stroke: #000000"/>
    </g>
   </g>
   <g id="PathCollection_103">
    <g clip-path="url(#pf2f659722c)">
     <use xlink:href="#mcefabff860" x="72.7872" y="154.15296" style="stroke: #000000"/>
    </g>
   </g>
   <g id="PathCollection_104">
    <g clip-path="url(#pf2f659722c)">
     <use xlink:href="#mcefabff860" x="72.7872" y="154.15296" style="stroke: #000000"/>
    </g>
   </g>
   <g id="PathCollection_105">
    <g clip-path="url(#pf2f659722c)">
     <use xlink:href="#mcefabff860" x="74.61504" y="152.97024" style="stroke: #000000"/>
    </g>
   </g>
   <g id="PathCollection_106">
    <g clip-path="url(#pf2f659722c)">
     <use xlink:href="#mcefabff860" x="74.61504" y="152.97024" style="stroke: #000000"/>
    </g>
   </g>
   <g id="PathCollection_107">
    <g clip-path="url(#pf2f659722c)">
     <use xlink:href="#mcefabff860" x="92.75904" y="141.49248" style="stroke: #000000"/>
    </g>
   </g>
   <g id="PathCollection_108">
    <g clip-path="url(#pf2f659722c)">
     <use xlink:href="#mcefabff860" x="92.75904" y="141.49248" style="stroke: #000000"/>
    </g>
   </g>
   <g id="PathCollection_109">
    <g clip-path="url(#pf2f659722c)">
     <use xlink:href="#mcefabff860" x="99.47904" y="138.69696" style="stroke: #000000"/>
    </g>
   </g>
   <g id="PathCollection_110">
    <g clip-path="url(#pf2f659722c)">
     <use xlink:href="#mcefabff860" x="99.47904" y="138.69696" style="stroke: #000000"/>
    </g>
   </g>
   <g id="PathCollection_111">
    <g clip-path="url(#pf2f659722c)">
     <use xlink:href="#mcefabff860" x="133.85856" y="116.89728" style="stroke: #000000"/>
    </g>
   </g>
   <g id="PathCollection_112">
    <g clip-path="url(#pf2f659722c)">
     <use xlink:href="#mcefabff860" x="133.85856" y="116.89728" style="stroke: #000000"/>
    </g>
   </g>
   <g id="PathCollection_113">
    <g clip-path="url(#pf2f659722c)">
     <use xlink:href="#mcefabff860" x="159.36768" y="101.73696" style="stroke: #000000"/>
    </g>
   </g>
   <g id="PathCollection_114">
    <g clip-path="url(#pf2f659722c)">
     <use xlink:href="#mcefabff860" x="159.36768" y="101.73696" style="stroke: #000000"/>
    </g>
   </g>
   <g id="PathCollection_115">
    <g clip-path="url(#pf2f659722c)">
     <use xlink:href="#mcefabff860" x="164.42112" y="98.08128" style="stroke: #000000"/>
    </g>
   </g>
   <g id="PathCollection_116">
    <g clip-path="url(#pf2f659722c)">
     <use xlink:href="#mcefabff860" x="164.42112" y="98.08128" style="stroke: #000000"/>
    </g>
   </g>
   <g id="PathCollection_117">
    <g clip-path="url(#pf2f659722c)">
     <use xlink:href="#mcefabff860" x="176.22144" y="91.65696" style="stroke: #000000"/>
    </g>
   </g>
   <g id="PathCollection_118">
    <g clip-path="url(#pf2f659722c)">
     <use xlink:href="#mcefabff860" x="176.22144" y="91.65696" style="stroke: #000000"/>
    </g>
   </g>
   <g id="PathCollection_119">
    <g clip-path="url(#pf2f659722c)">
     <use xlink:href="#mcefabff860" x="188.64" y="84.82944" style="stroke: #000000"/>
    </g>
   </g>
   <g id="PathCollection_120">
    <g clip-path="url(#pf2f659722c)">
     <use xlink:href="#mcefabff860" x="188.64" y="84.82944" style="stroke: #000000"/>
    </g>
   </g>
   <g id="PathCollection_121">
    <g clip-path="url(#pf2f659722c)">
     <use xlink:href="#mcefabff860" x="198.55872" y="79.39968" style="stroke: #000000"/>
    </g>
   </g>
   <g id="PathCollection_122">
    <g clip-path="url(#pf2f659722c)">
     <use xlink:href="#mcefabff860" x="198.55872" y="79.39968" style="stroke: #000000"/>
    </g>
   </g>
   <g id="PathCollection_123">
    <g clip-path="url(#pf2f659722c)">
     <use xlink:href="#mcefabff860" x="199.6608" y="77.24928" style="stroke: #000000"/>
    </g>
   </g>
   <g id="PathCollection_124">
    <g clip-path="url(#pf2f659722c)">
     <use xlink:href="#mcefabff860" x="199.6608" y="77.24928" style="stroke: #000000"/>
    </g>
   </g>
   <g id="PathCollection_125">
    <g clip-path="url(#pf2f659722c)">
     <use xlink:href="#mcefabff860" x="208.50432" y="72.16896" style="stroke: #000000"/>
    </g>
   </g>
   <g id="PathCollection_126">
    <g clip-path="url(#pf2f659722c)">
     <use xlink:href="#mcefabff860" x="208.50432" y="72.16896" style="stroke: #000000"/>
    </g>
   </g>
   <g id="PathCollection_127">
    <g clip-path="url(#pf2f659722c)">
     <use xlink:href="#mcefabff860" x="199.6608" y="77.24928" style="stroke: #000000"/>
    </g>
   </g>
   <g id="PathCollection_128">
    <g clip-path="url(#pf2f659722c)">
     <use xlink:href="#mcefabff860" x="199.6608" y="77.24928" style="stroke: #000000"/>
    </g>
   </g>
   <g id="PathCollection_129">
    <g clip-path="url(#pf2f659722c)">
     <use xlink:href="#mcefabff860" x="198.55872" y="79.39968" style="stroke: #000000"/>
    </g>
   </g>
   <g id="PathCollection_130">
    <g clip-path="url(#pf2f659722c)">
     <use xlink:href="#mcefabff860" x="198.55872" y="79.39968" style="stroke: #000000"/>
    </g>
   </g>
   <g id="PathCollection_131">
    <g clip-path="url(#pf2f659722c)">
     <use xlink:href="#mcefabff860" x="201.56928" y="82.38336" style="stroke: #000000"/>
    </g>
   </g>
   <g id="PathCollection_132">
    <g clip-path="url(#pf2f659722c)">
     <use xlink:href="#mcefabff860" x="201.56928" y="82.38336" style="stroke: #000000"/>
    </g>
   </g>
   <g id="PathCollection_133">
    <g clip-path="url(#pf2f659722c)">
     <use xlink:href="#mcefabff860" x="207.16032" y="88.00128" style="stroke: #000000"/>
    </g>
   </g>
   <g id="PathCollection_134">
    <g clip-path="url(#pf2f659722c)">
     <use xlink:href="#mcefabff860" x="207.16032" y="88.00128" style="stroke: #000000"/>
    </g>
   </g>
   <g id="PathCollection_135">
    <g clip-path="url(#pf2f659722c)">
     <use xlink:href="#mcefabff860" x="203.58528" y="95.15136" style="stroke: #000000"/>
    </g>
   </g>
   <g id="PathCollection_136">
    <g clip-path="url(#pf2f659722c)">
     <use xlink:href="#mcefabff860" x="203.58528" y="95.15136" style="stroke: #000000"/>
    </g>
   </g>
   <g id="PathCollection_137">
    <g clip-path="url(#pf2f659722c)">
     <use xlink:href="#mcefabff860" x="202.08" y="98.13504" style="stroke: #000000"/>
    </g>
   </g>
   <g id="PathCollection_138">
    <g clip-path="url(#pf2f659722c)">
     <use xlink:href="#mcefabff860" x="202.08" y="98.13504" style="stroke: #000000"/>
    </g>
   </g>
   <g id="PathCollection_139">
    <g clip-path="url(#pf2f659722c)">
     <use xlink:href="#mcefabff860" x="196.9728" y="116.01024" style="stroke: #000000"/>
    </g>
   </g>
   <g id="PathCollection_140">
    <g clip-path="url(#pf2f659722c)">
     <use xlink:href="#mcefabff860" x="196.9728" y="116.01024" style="stroke: #000000"/>
    </g>
   </g>
   <g id="PathCollection_141">
    <g clip-path="url(#pf2f659722c)">
     <use xlink:href="#mcefabff860" x="183.15648" y="128.832" style="stroke: #000000"/>
    </g>
   </g>
   <g id="PathCollection_142">
    <g clip-path="url(#pf2f659722c)">
     <use xlink:href="#mcefabff860" x="183.15648" y="128.832" style="stroke: #000000"/>
    </g>
   </g>
   <g id="PathCollection_143">
    <g clip-path="url(#pf2f659722c)">
     <use xlink:href="#mcefabff860" x="183.18336" y="141.76128" style="stroke: #000000"/>
    </g>
   </g>
   <g id="PathCollection_144">
    <g clip-path="url(#pf2f659722c)">
     <use xlink:href="#mcefabff860" x="183.18336" y="141.76128" style="stroke: #000000"/>
    </g>
   </g>
   <g id="PathCollection_145">
    <g clip-path="url(#pf2f659722c)">
     <use xlink:href="#mcefabff860" x="183.264" y="158.5344" style="stroke: #000000"/>
    </g>
   </g>
   <g id="PathCollection_146">
    <g clip-path="url(#pf2f659722c)">
     <use xlink:href="#mcefabff860" x="183.264" y="158.5344" style="stroke: #000000"/>
    </g>
   </g>
   <g id="PathCollection_147">
    <g clip-path="url(#pf2f659722c)">
     <use xlink:href="#mcefabff860" x="194.016" y="165.12" style="stroke: #000000"/>
    </g>
   </g>
   <g id="PathCollection_148">
    <g clip-path="url(#pf2f659722c)">
     <use xlink:href="#mcefabff860" x="194.016" y="165.12" style="stroke: #000000"/>
    </g>
   </g>
   <g id="PathCollection_149">
    <g clip-path="url(#pf2f659722c)">
     <use xlink:href="#mcefabff860" x="183.264" y="172.72704" style="stroke: #000000"/>
    </g>
   </g>
   <g id="PathCollection_150">
    <g clip-path="url(#pf2f659722c)">
     <use xlink:href="#m1747b24780" x="48.864" y="216.40704" style="fill: #0000ff; stroke: #0000ff"/>
    </g>
   </g>
   <g id="PathCollection_151">
    <defs>
     <path id="m22bbe02512" d="M 0 3 
C 0.795609 3 1.55874 2.683901 2.12132 2.12132 
C 2.683901 1.55874 3 0.795609 3 0 
C 3 -0.795609 2.683901 -1.55874 2.12132 -2.12132 
C 1.55874 -2.683901 0.795609 -3 0 -3 
C -0.795609 -3 -1.55874 -2.683901 -2.12132 -2.12132 
C -2.683901 -1.55874 -3 -0.795609 -3 0 
C -3 0.795609 -2.683901 1.55874 -2.12132 2.12132 
C -1.55874 2.683901 -0.795609 3 0 3 
z
" style="stroke: #ff0000"/>
    </defs>
    <g clip-path="url(#pf2f659722c)">
     <use xlink:href="#m22bbe02512" x="183.264" y="172.72704" style="fill: #ff0000; stroke: #ff0000"/>
    </g>
   </g>
   <g id="PathCollection_152">
    <g clip-path="url(#pf2f659722c)">
     <use xlink:href="#m7a9c056fbe" x="290.784" y="140.256" style="fill: #008000; stroke: #008000"/>
    </g>
   </g>
   <g id="line2d_1">
    <path d="M 48.864 216.40704 
L 39.91296 176.38272 
" clip-path="url(#pf2f659722c)" style="fill: none; stroke: #000000; stroke-width: 1.5; stroke-linecap: square"/>
   </g>
   <g id="line2d_2">
    <path d="M 39.91296 176.38272 
L 55.9872 164.90496 
" clip-path="url(#pf2f659722c)" style="fill: none; stroke: #000000; stroke-width: 1.5; stroke-linecap: square"/>
   </g>
   <g id="line2d_3">
    <path d="M 55.9872 164.90496 
L 72.7872 154.15296 
" clip-path="url(#pf2f659722c)" style="fill: none; stroke: #000000; stroke-width: 1.5; stroke-linecap: square"/>
   </g>
   <g id="line2d_4">
    <path d="M 72.7872 154.15296 
L 74.61504 152.97024 
" clip-path="url(#pf2f659722c)" style="fill: none; stroke: #000000; stroke-width: 1.5; stroke-linecap: square"/>
   </g>
   <g id="line2d_5">
    <path d="M 74.61504 152.97024 
L 92.75904 141.49248 
" clip-path="url(#pf2f659722c)" style="fill: none; stroke: #000000; stroke-width: 1.5; stroke-linecap: square"/>
   </g>
   <g id="line2d_6">
    <path d="M 92.75904 141.49248 
L 99.47904 138.69696 
" clip-path="url(#pf2f659722c)" style="fill: none; stroke: #000000; stroke-width: 1.5; stroke-linecap: square"/>
   </g>
   <g id="line2d_7">
    <path d="M 99.47904 138.69696 
L 133.85856 116.89728 
" clip-path="url(#pf2f659722c)" style="fill: none; stroke: #000000; stroke-width: 1.5; stroke-linecap: square"/>
   </g>
   <g id="line2d_8">
    <path d="M 133.85856 116.89728 
L 159.36768 101.73696 
" clip-path="url(#pf2f659722c)" style="fill: none; stroke: #000000; stroke-width: 1.5; stroke-linecap: square"/>
   </g>
   <g id="line2d_9">
    <path d="M 159.36768 101.73696 
L 164.42112 98.08128 
" clip-path="url(#pf2f659722c)" style="fill: none; stroke: #000000; stroke-width: 1.5; stroke-linecap: square"/>
   </g>
   <g id="line2d_10">
    <path d="M 164.42112 98.08128 
L 176.22144 91.65696 
" clip-path="url(#pf2f659722c)" style="fill: none; stroke: #000000; stroke-width: 1.5; stroke-linecap: square"/>
   </g>
   <g id="line2d_11">
    <path d="M 176.22144 91.65696 
L 188.64 84.82944 
" clip-path="url(#pf2f659722c)" style="fill: none; stroke: #000000; stroke-width: 1.5; stroke-linecap: square"/>
   </g>
   <g id="line2d_12">
    <path d="M 188.64 84.82944 
L 198.55872 79.39968 
" clip-path="url(#pf2f659722c)" style="fill: none; stroke: #000000; stroke-width: 1.5; stroke-linecap: square"/>
   </g>
   <g id="line2d_13">
    <path d="M 198.55872 79.39968 
L 199.6608 77.24928 
" clip-path="url(#pf2f659722c)" style="fill: none; stroke: #000000; stroke-width: 1.5; stroke-linecap: square"/>
   </g>
   <g id="line2d_14">
    <path d="M 199.6608 77.24928 
L 208.50432 72.16896 
" clip-path="url(#pf2f659722c)" style="fill: none; stroke: #000000; stroke-width: 1.5; stroke-linecap: square"/>
   </g>
   <g id="line2d_15">
    <path d="M 208.50432 72.16896 
L 199.6608 77.24928 
" clip-path="url(#pf2f659722c)" style="fill: none; stroke: #000000; stroke-width: 1.5; stroke-linecap: square"/>
   </g>
   <g id="line2d_16">
    <path d="M 199.6608 77.24928 
L 198.55872 79.39968 
" clip-path="url(#pf2f659722c)" style="fill: none; stroke: #000000; stroke-width: 1.5; stroke-linecap: square"/>
   </g>
   <g id="line2d_17">
    <path d="M 198.55872 79.39968 
L 201.56928 82.38336 
" clip-path="url(#pf2f659722c)" style="fill: none; stroke: #000000; stroke-width: 1.5; stroke-linecap: square"/>
   </g>
   <g id="line2d_18">
    <path d="M 201.56928 82.38336 
L 207.16032 88.00128 
" clip-path="url(#pf2f659722c)" style="fill: none; stroke: #000000; stroke-width: 1.5; stroke-linecap: square"/>
   </g>
   <g id="line2d_19">
    <path d="M 207.16032 88.00128 
L 203.58528 95.15136 
" clip-path="url(#pf2f659722c)" style="fill: none; stroke: #000000; stroke-width: 1.5; stroke-linecap: square"/>
   </g>
   <g id="line2d_20">
    <path d="M 203.58528 95.15136 
L 202.08 98.13504 
" clip-path="url(#pf2f659722c)" style="fill: none; stroke: #000000; stroke-width: 1.5; stroke-linecap: square"/>
   </g>
   <g id="line2d_21">
    <path d="M 202.08 98.13504 
L 196.9728 116.01024 
" clip-path="url(#pf2f659722c)" style="fill: none; stroke: #000000; stroke-width: 1.5; stroke-linecap: square"/>
   </g>
   <g id="line2d_22">
    <path d="M 196.9728 116.01024 
L 183.15648 128.832 
" clip-path="url(#pf2f659722c)" style="fill: none; stroke: #000000; stroke-width: 1.5; stroke-linecap: square"/>
   </g>
   <g id="line2d_23">
    <path d="M 183.15648 128.832 
L 183.18336 141.76128 
" clip-path="url(#pf2f659722c)" style="fill: none; stroke: #000000; stroke-width: 1.5; stroke-linecap: square"/>
   </g>
   <g id="line2d_24">
    <path d="M 183.18336 141.76128 
L 183.264 158.5344 
" clip-path="url(#pf2f659722c)" style="fill: none; stroke: #000000; stroke-width: 1.5; stroke-linecap: square"/>
   </g>
   <g id="line2d_25">
    <path d="M 183.264 158.5344 
L 194.016 165.12 
" clip-path="url(#pf2f659722c)" style="fill: none; stroke: #000000; stroke-width: 1.5; stroke-linecap: square"/>
   </g>
   <g id="line2d_26">
    <path d="M 194.016 165.12 
L 183.264 172.72704 
" clip-path="url(#pf2f659722c)" style="fill: none; stroke: #000000; stroke-width: 1.5; stroke-linecap: square"/>
   </g>
  </g>
 </g>
 <defs>
  <clipPath id="pf2f659722c">
   <rect x="7.2" y="7.2" width="325.248" height="266.112"/>
  </clipPath>
 </defs>
</svg>
