<?xml version="1.0" encoding="utf-8" standalone="no"?>
<!DOCTYPE svg PUBLIC "-//W3C//DTD SVG 1.1//EN"
  "http://www.w3.org/Graphics/SVG/1.1/DTD/svg11.dtd">
<svg xmlns:xlink="http://www.w3.org/1999/xlink" width="369.216pt" height="280.512pt" viewBox="0 0 369.216 280.512" xmlns="http://www.w3.org/2000/svg" version="1.1">
 <metadata>
  <rdf:RDF xmlns:dc="http://purl.org/dc/elements/1.1/" xmlns:cc="http://creativecommons.org/ns#" xmlns:rdf="http://www.w3.org/1999/02/22-rdf-syntax-ns#">
   <cc:Work>
    <dc:type rdf:resource="http://purl.org/dc/dcmitype/StillImage"/>
    <dc:date>2023-03-01T19:14:32.051467</dc:date>
    <dc:format>image/svg+xml</dc:format>
    <dc:creator>
     <cc:Agent>
      <dc:title>Matplotlib v3.5.2, https://matplotlib.org/</dc:title>
     </cc:Agent>
    </dc:creator>
   </cc:Work>
  </rdf:RDF>
 </metadata>
 <defs>
  <style type="text/css">*{stroke-linejoin: round; stroke-linecap: butt}</style>
 </defs>
 <g id="figure_1">
  <g id="patch_1">
   <path d="M 0 280.512 
L 369.216 280.512 
L 369.216 0 
L 0 0 
L 0 280.512 
z
" style="fill: none"/>
  </g>
  <g id="axes_1">
   <g id="PathCollection_1"/>
   <g id="PathCollection_2"/>
   <g id="PathCollection_3"/>
   <g id="PathCollection_4"/>
   <g id="PathCollection_5"/>
   <g id="PathCollection_6"/>
   <g id="PathCollection_7"/>
   <g id="PathCollection_8"/>
   <g id="patch_2">
    <path d="M 265.248 261.216 
L 345.888 261.216 
L 345.888 99.936 
L 103.968 99.936 
L 103.968 19.296 
L 23.328 19.296 
L 23.328 180.576 
L 265.248 180.576 
z
" clip-path="url(#p6c8d4fddda)" style="fill: #ffffff; stroke: #000000; stroke-width: 2; stroke-linejoin: miter"/>
   </g>
   <g id="PathCollection_9"/>
   <g id="PathCollection_10"/>
   <g id="PathCollection_11"/>
   <g id="PathCollection_12"/>
   <g id="PathCollection_13"/>
   <g id="PathCollection_14"/>
   <g id="PathCollection_15"/>
   <g id="PathCollection_16"/>
   <g id="patch_3">
    <path d="M 265.248 261.216 
L 345.888 261.216 
L 345.888 99.936 
L 103.968 99.936 
L 103.968 19.296 
L 23.328 19.296 
L 23.328 180.576 
L 265.248 180.576 
z
" clip-path="url(#p6c8d4fddda)" style="fill: #90ee90; stroke: #000000; stroke-width: 2; stroke-linejoin: miter"/>
   </g>
   <g id="PathCollection_17">
    <defs>
     <path id="mc8b3cc8a95" d="M 0 3 
C 0.795609 3 1.55874 2.683901 2.12132 2.12132 
C 2.683901 1.55874 3 0.795609 3 0 
C 3 -0.795609 2.683901 -1.55874 2.12132 -2.12132 
C 1.55874 -2.683901 0.795609 -3 0 -3 
C -0.795609 -3 -1.55874 -2.683901 -2.12132 -2.12132 
C -2.683901 -1.55874 -3 -0.795609 -3 0 
C -3 0.795609 -2.683901 1.55874 -2.12132 2.12132 
C -1.55874 2.683901 -0.795609 3 0 3 
z
" style="stroke: #0000ff"/>
    </defs>
    <g clip-path="url(#p6c8d4fddda)">
     <use xlink:href="#mc8b3cc8a95" x="305.568" y="140.256" style="fill: #0000ff; stroke: #0000ff"/>
    </g>
   </g>
   <g id="PathCollection_18">
    <defs>
     <path id="mff388df830" d="M 0 3 
C 0.795609 3 1.55874 2.683901 2.12132 2.12132 
C 2.683901 1.55874 3 0.795609 3 0 
C 3 -0.795609 2.683901 -1.55874 2.12132 -2.12132 
C 1.55874 -2.683901 0.795609 -3 0 -3 
C -0.795609 -3 -1.55874 -2.683901 -2.12132 -2.12132 
C -2.683901 -1.55874 -3 -0.795609 -3 0 
C -3 0.795609 -2.683901 1.55874 -2.12132 2.12132 
C -1.55874 2.683901 -0.795609 3 0 3 
z
" style="stroke: #a600ff"/>
    </defs>
    <g clip-path="url(#p6c8d4fddda)">
     <use xlink:href="#mff388df830" x="275.328" y="241.056" style="fill: #a600ff; stroke: #a600ff"/>
    </g>
   </g>
   <g id="PathCollection_19">
    <defs>
     <path id="m175c957e31" d="M 0 3 
C 0.795609 3 1.55874 2.683901 2.12132 2.12132 
C 2.683901 1.55874 3 0.795609 3 0 
C 3 -0.795609 2.683901 -1.55874 2.12132 -2.12132 
C 1.55874 -2.683901 0.795609 -3 0 -3 
C -0.795609 -3 -1.55874 -2.683901 -2.12132 -2.12132 
C -2.683901 -1.55874 -3 -0.795609 -3 0 
C -3 0.795609 -2.683901 1.55874 -2.12132 2.12132 
C -1.55874 2.683901 -0.795609 3 0 3 
z
" style="stroke: #e97419"/>
    </defs>
    <g clip-path="url(#p6c8d4fddda)">
     <use xlink:href="#m175c957e31" x="82.464" y="46.176" style="fill: #e97419; stroke: #e97419"/>
    </g>
   </g>
   <g id="PathCollection_20"/>
   <g id="PathCollection_21"/>
   <g id="PathCollection_22"/>
   <g id="PathCollection_23"/>
   <g id="PathCollection_24"/>
   <g id="PathCollection_25"/>
   <g id="PathCollection_26"/>
   <g id="PathCollection_27"/>
   <g id="patch_4">
    <path d="M 265.248 261.216 
L 345.888 261.216 
L 345.888 99.936 
L 103.968 99.936 
L 103.968 19.296 
L 23.328 19.296 
L 23.328 180.576 
L 265.248 180.576 
z
" clip-path="url(#p6c8d4fddda)" style="fill: #ffffff; stroke: #000000; stroke-width: 2; stroke-linejoin: miter"/>
   </g>
   <g id="PathCollection_28"/>
   <g id="PathCollection_29"/>
   <g id="PathCollection_30"/>
   <g id="PathCollection_31"/>
   <g id="PathCollection_32"/>
   <g id="PathCollection_33"/>
   <g id="PathCollection_34"/>
   <g id="PathCollection_35"/>
   <g id="patch_5">
    <path d="M 265.248 261.216 
L 345.888 261.216 
L 345.888 99.936 
L 103.968 99.936 
L 103.968 19.296 
L 23.328 19.296 
L 23.328 180.576 
L 265.248 180.576 
z
" clip-path="url(#p6c8d4fddda)" style="fill: #90ee90; stroke: #000000; stroke-width: 2; stroke-linejoin: miter"/>
   </g>
   <g id="PathCollection_36">
    <g clip-path="url(#p6c8d4fddda)">
     <use xlink:href="#mc8b3cc8a95" x="305.568" y="140.256" style="fill: #0000ff; stroke: #0000ff"/>
    </g>
   </g>
   <g id="PathCollection_37">
    <defs>
     <path id="m2ed6137a86" d="M 0 3 
C 0.795609 3 1.55874 2.683901 2.12132 2.12132 
C 2.683901 1.55874 3 0.795609 3 0 
C 3 -0.795609 2.683901 -1.55874 2.12132 -2.12132 
C 1.55874 -2.683901 0.795609 -3 0 -3 
C -0.795609 -3 -1.55874 -2.683901 -2.12132 -2.12132 
C -2.683901 -1.55874 -3 -0.795609 -3 0 
C -3 0.795609 -2.683901 1.55874 -2.12132 2.12132 
C -1.55874 2.683901 -0.795609 3 0 3 
z
" style="stroke: #000000"/>
    </defs>
    <g clip-path="url(#p6c8d4fddda)">
     <use xlink:href="#m2ed6137a86" x="63.648" y="49.536" style="stroke: #000000"/>
    </g>
   </g>
   <g id="PathCollection_38">
    <g clip-path="url(#p6c8d4fddda)">
     <use xlink:href="#m2ed6137a86" x="50.20128" y="86.48928" style="stroke: #000000"/>
    </g>
   </g>
   <g id="PathCollection_39">
    <g clip-path="url(#p6c8d4fddda)">
     <use xlink:href="#m2ed6137a86" x="50.20128" y="86.48928" style="stroke: #000000"/>
    </g>
   </g>
   <g id="PathCollection_40">
    <g clip-path="url(#p6c8d4fddda)">
     <use xlink:href="#m2ed6137a86" x="63.648" y="140.256" style="stroke: #000000"/>
    </g>
   </g>
   <g id="PathCollection_41">
    <g clip-path="url(#p6c8d4fddda)">
     <use xlink:href="#m2ed6137a86" x="63.648" y="140.256" style="stroke: #000000"/>
    </g>
   </g>
   <g id="PathCollection_42">
    <g clip-path="url(#p6c8d4fddda)">
     <use xlink:href="#m2ed6137a86" x="157.73472" y="153.70272" style="stroke: #000000"/>
    </g>
   </g>
   <g id="PathCollection_43">
    <g clip-path="url(#p6c8d4fddda)">
     <use xlink:href="#m2ed6137a86" x="157.73472" y="153.70272" style="stroke: #000000"/>
    </g>
   </g>
   <g id="PathCollection_44">
    <g clip-path="url(#p6c8d4fddda)">
     <use xlink:href="#m2ed6137a86" x="211.48128" y="126.80928" style="stroke: #000000"/>
    </g>
   </g>
   <g id="PathCollection_45">
    <g clip-path="url(#p6c8d4fddda)">
     <use xlink:href="#m2ed6137a86" x="211.48128" y="126.80928" style="stroke: #000000"/>
    </g>
   </g>
   <g id="PathCollection_46">
    <g clip-path="url(#p6c8d4fddda)">
     <use xlink:href="#m2ed6137a86" x="305.568" y="140.256" style="stroke: #000000"/>
    </g>
   </g>
   <g id="PathCollection_47">
    <g clip-path="url(#p6c8d4fddda)">
     <use xlink:href="#mc8b3cc8a95" x="63.648" y="49.536" style="fill: #0000ff; stroke: #0000ff"/>
    </g>
   </g>
   <g id="PathCollection_48">
    <defs>
     <path id="mf0827e4374" d="M 0 3 
C 0.795609 3 1.55874 2.683901 2.12132 2.12132 
C 2.683901 1.55874 3 0.795609 3 0 
C 3 -0.795609 2.683901 -1.55874 2.12132 -2.12132 
C 1.55874 -2.683901 0.795609 -3 0 -3 
C -0.795609 -3 -1.55874 -2.683901 -2.12132 -2.12132 
C -2.683901 -1.55874 -3 -0.795609 -3 0 
C -3 0.795609 -2.683901 1.55874 -2.12132 2.12132 
C -1.55874 2.683901 -0.795609 3 0 3 
z
" style="stroke: #ff0000"/>
    </defs>
    <g clip-path="url(#p6c8d4fddda)">
     <use xlink:href="#mf0827e4374" x="305.568" y="140.256" style="fill: #ff0000; stroke: #ff0000"/>
    </g>
   </g>
   <g id="PathCollection_49">
    <g clip-path="url(#p6c8d4fddda)">
     <use xlink:href="#mff388df830" x="275.328" y="241.056" style="fill: #a600ff; stroke: #a600ff"/>
    </g>
   </g>
   <g id="PathCollection_50">
    <g clip-path="url(#p6c8d4fddda)">
     <use xlink:href="#m175c957e31" x="82.464" y="46.176" style="fill: #e97419; stroke: #e97419"/>
    </g>
   </g>
   <g id="line2d_1">
    <path d="M 63.648 49.536 
L 50.20128 86.48928 
" clip-path="url(#p6c8d4fddda)" style="fill: none; stroke: #000000; stroke-width: 1.5; stroke-linecap: square"/>
   </g>
   <g id="line2d_2">
    <path d="M 50.20128 86.48928 
L 63.648 140.256 
" clip-path="url(#p6c8d4fddda)" style="fill: none; stroke: #000000; stroke-width: 1.5; stroke-linecap: square"/>
   </g>
   <g id="line2d_3">
    <path d="M 63.648 140.256 
L 157.73472 153.70272 
" clip-path="url(#p6c8d4fddda)" style="fill: none; stroke: #000000; stroke-width: 1.5; stroke-linecap: square"/>
   </g>
   <g id="line2d_4">
    <path d="M 157.73472 153.70272 
L 211.48128 126.80928 
" clip-path="url(#p6c8d4fddda)" style="fill: none; stroke: #000000; stroke-width: 1.5; stroke-linecap: square"/>
   </g>
   <g id="line2d_5">
    <path d="M 211.48128 126.80928 
L 305.568 140.256 
" clip-path="url(#p6c8d4fddda)" style="fill: none; stroke: #000000; stroke-width: 1.5; stroke-linecap: square"/>
   </g>
  </g>
 </g>
 <defs>
  <clipPath id="p6c8d4fddda">
   <rect x="7.2" y="7.2" width="354.816" height="266.112"/>
  </clipPath>
 </defs>
</svg>
